<svg xmlns="http://www.w3.org/2000/svg" xmlns:xlink="http://www.w3.org/1999/xlink" width="465" height="523" viewBox="0 0 465 523">
  <defs>
    <clipPath id="clip-path">
      <rect id="Rectangle_144" data-name="Rectangle 144" width="465" height="523" transform="translate(-1412 319.5)" fill="#7d13a3" stroke="#707070" stroke-width="1"/>
    </clipPath>
  </defs>
  <g id="Mask_Group_5" data-name="Mask Group 5" transform="translate(1412 -319.5)" clip-path="url(#clip-path)">
    <g id="Group_1948" data-name="Group 1948" transform="translate(0 -30)">
      <g id="Component_5_6" data-name="Component 5 – 6" transform="translate(-1456.156 462.948)">
        <path id="Path_865" data-name="Path 865" d="M253.567,140.043C164.355,149.284,1.512,100.731,1.512,100.731L33.75,20.073S118.037,51.9,204.922,51.9,382.788-13.666,382.788-13.666,408.737,43.8,386.7,86.054C377.094,104.49,330.254,134.24,253.567,140.043Z" transform="matrix(0.921, -0.391, 0.391, 0.921, 3.948, 167.143)" fill="#0cf2b4"/>
      </g>
      <g id="pixeltrue-data-analyse" transform="translate(-1606.424 296.843)">
        <g id="backgound" transform="translate(187.9 138.525)">
          <g id="Group_1675" data-name="Group 1675" transform="translate(378.476 233.595)">
            <g id="Group_1674" data-name="Group 1674" transform="translate(0)">
              <path id="Path_1461" data-name="Path 1461" d="M1098.312,700.859c-.042,6.737-.125,13.515-.166,20.252,0,1.663-.042,3.327-.042,4.948,0,1.123-.25,2.537.208,3.618.707,1.83,3.077,1.331,3.951,2.869a6.639,6.639,0,0,0,.208-.873c-3.036,1.5-3.826,4.865-4.075,7.984-.208,2.994-.333,7.818,3.576,8.4a10.437,10.437,0,0,0-.166-1.123c-5.905,2.7-3.535,13.266-1.04,17.507a30.1,30.1,0,0,0,7.319,7.9c1.58,1.289,3.16,2.5,4.782,3.743.956.749,1.913,1.455,2.828,2.2.5.374,2.62,1.539,2.7,2.246a7.1,7.1,0,0,1,.457-.582h.083a6.665,6.665,0,0,1,.208.873c.042-.042.042-.083.083-.125.333-.707-.707-1.331-1.081-.624-.042.042-.042.083-.083.125a.666.666,0,0,0,.208.873.75.75,0,0,0,.873.125c.25-.083.5-.333.457-.582-.166-1.289-1.455-1.871-2.453-2.62-1.455-1.164-2.953-2.287-4.408-3.451a68.22,68.22,0,0,1-7.9-6.737,17.707,17.707,0,0,1-5.032-9.9c-.457-3.16-.873-8.234,2.62-9.856.457-.208.374-1.081-.166-1.123-3.327-.5-2.869-5.24-2.62-7.776.249-2.495.956-5.115,3.41-6.321a.656.656,0,0,0,.208-.873c-.873-1.5-2.994-1.206-3.784-2.537-.624-1-.208-3.327-.166-4.533,0-1.663.042-3.327.042-4.949.042-6.321.083-12.683.166-19a.605.605,0,1,0-1.206-.083Z" transform="translate(-1098.037 -700.26)" fill="#e8e8e8"/>
            </g>
          </g>
          <g id="Group_1677" data-name="Group 1677" transform="translate(378.83 233.237)">
            <g id="Group_1676" data-name="Group 1676">
              <path id="Path_1462" data-name="Path 1462" d="M1099.475,700.689c5.822.291,9.9,4.741,13.39,8.9,1.663,2,3.41,3.867,5.115,5.739,1.746,1.871,4.034,5.655.873,7.485a.631.631,0,0,0,.333,1.164c4.824.125,6.945,5.988,8.442,9.689a89.672,89.672,0,0,1,4.242,13.806,87.107,87.107,0,0,1,1.331,29.359c-.083.79,1.164.79,1.248,0a89.408,89.408,0,0,0-2.079-32.561,76.908,76.908,0,0,0-5.157-14.679c-1.58-3.327-4.034-6.778-8.026-6.861.125.374.208.79.333,1.164,6.071-3.493-1.456-10.147-3.909-13.016-4.366-5.073-8.774-11.1-16.093-11.477a.646.646,0,0,0-.042,1.289Z" transform="translate(-1098.887 -699.4)" fill="#e8e8e8"/>
            </g>
          </g>
          <g id="Group_1679" data-name="Group 1679" transform="translate(399.112 195.862)">
            <g id="Group_1678" data-name="Group 1678" transform="translate(0)">
              <path id="Path_1463" data-name="Path 1463" d="M1148.842,663.157a136.33,136.33,0,0,1,12.226-29.608,6.662,6.662,0,0,1-.873.208c1.123.665,2.287,1.331,3.41,2a.648.648,0,0,0,.873-.873c-2.994-5.988,5.988-9.814,9.024-13.39a4.581,4.581,0,0,1-.749.083c.582.333,1.206.665,1.788,1a.665.665,0,0,0,.873-.208c3.327-5.655,9.19-8.816,14.846-11.727-.291-.25-.624-.458-.915-.707-1.788,5.863,1.04,12.268,1.58,18.131a56.5,56.5,0,0,1,.083,9.564c-.125,1.58,0,3.951-.624,5.364,0,1.04-.582,1.622-1.788,1.83-.374.042-.707.083-1.081.125-.832.083-1.7.166-2.537.25-.333.042-.665.249-.624.624a1.9,1.9,0,0,0,.915,1.622c.79.665,1.414.749,1.788,1.913a6.264,6.264,0,0,1,.208,1.954,64.2,64.2,0,0,1-1.123,10.147,74.827,74.827,0,0,1-2.412,9.564c-.873,2.62-2.037,6.529-5.281,6.945a.644.644,0,0,0-.541.956c2.412,3.7-1.164,8.192-2.911,11.394-1.913,3.41-3.659,6.9-5.281,10.438a155.081,155.081,0,0,0-8.067,21.749.626.626,0,0,0,1.206.333,151.249,151.249,0,0,1,9.564-24.867c1.83-3.784,4.034-7.36,5.947-11.1,1.372-2.7,2.453-5.863.665-8.608-.166.333-.374.624-.541.956,2.453-.291,4.034-2.038,5.115-4.158a46.149,46.149,0,0,0,3.285-10.521,71.82,71.82,0,0,0,1.663-11.893,8.458,8.458,0,0,0-.374-4.075c-.333-.832-2.453-2.121-2.495-2.7l-.624.624c2.329-.25,5.656.333,6.446-2.329,1.04-3.327,1-7.444.956-10.853a59.253,59.253,0,0,0-1.04-10.854c-.749-4.034-2.079-8.067-.832-12.143a.631.631,0,0,0-.915-.707c-5.863,3.036-11.893,6.321-15.3,12.184a6.645,6.645,0,0,1,.873-.208c-.582-.333-1.206-.665-1.788-1a.627.627,0,0,0-.749.083c-3.493,4.117-12.683,8.026-9.232,14.887l.873-.873c-1.123-.665-2.287-1.331-3.41-2a.656.656,0,0,0-.873.208,142.084,142.084,0,0,0-12.35,29.9.594.594,0,1,0,1.123.374Z" transform="translate(-1147.661 -609.522)" fill="#e8e8e8"/>
            </g>
          </g>
          <g id="Group_1681" data-name="Group 1681" transform="translate(359.869 182.482)">
            <g id="Group_1680" data-name="Group 1680" transform="translate(0)">
              <path id="Path_1464" data-name="Path 1464" d="M1064.315,601.861c-6.986.5-10.687-7.693-9.523-13.6,1.123-5.78,6.778-9.856,12.558-9.689,7.61.166,11.519,7.61,10.147,14.555-1.206,6.2-7.444,10.77-13.681,8.317-.749-.291-1.081.915-.333,1.206a11.361,11.361,0,0,0,13.556-4.865,15.155,15.155,0,0,0-.79-16.218c-3.41-4.574-9.939-5.2-14.887-2.994a13.29,13.29,0,0,0-8.067,12.434c.125,5.905,4.491,12.558,10.978,12.1.832-.042.873-1.289.042-1.248Z" transform="translate(-1053.292 -577.345)" fill="#e8e8e8"/>
            </g>
          </g>
          <g id="Group_1683" data-name="Group 1683" transform="translate(426.217 115.325)">
            <g id="Group_1682" data-name="Group 1682">
              <path id="Path_1465" data-name="Path 1465" d="M1221.349,416.163a86.052,86.052,0,0,1-8.358,12.725c-.5.624.374,1.5.873.873a86.41,86.41,0,0,0,8.566-12.974c.374-.707-.707-1.331-1.081-.624Z" transform="translate(-1212.842 -415.852)" fill="#e8e8e8"/>
            </g>
          </g>
          <g id="Group_1685" data-name="Group 1685" transform="translate(434.638 115.88)">
            <g id="Group_1684" data-name="Group 1684">
              <path id="Path_1466" data-name="Path 1466" d="M1233.137,417.94c1.5,3.951,3.077,7.9,4.7,11.81.291.749,1.5.416,1.206-.333-1.622-3.909-3.2-7.859-4.7-11.81-.291-.749-1.5-.416-1.206.333Z" transform="translate(-1233.092 -417.185)" fill="#e8e8e8"/>
            </g>
          </g>
          <g id="Group_1687" data-name="Group 1687" transform="translate(428.38 116.593)">
            <g id="Group_1686" data-name="Group 1686" transform="translate(0)">
              <path id="Path_1467" data-name="Path 1467" d="M1224.054,419.524a207.941,207.941,0,0,1-5.988,45.868.626.626,0,0,0,1.206.333,208.492,208.492,0,0,0,6.03-46.2c.042-.832-1.206-.832-1.248,0Z" transform="translate(-1218.042 -418.9)" fill="#e8e8e8"/>
            </g>
          </g>
          <g id="Group_1689" data-name="Group 1689" transform="translate(440.786 142.032)">
            <g id="Group_1688" data-name="Group 1688">
              <path id="Path_1468" data-name="Path 1468" d="M1248.677,480.668a88.437,88.437,0,0,1-.79,26.7c-.125.79,1.04,1.123,1.206.333a90.653,90.653,0,0,0,.832-27.03c-.125-.79-1.372-.79-1.248,0Z" transform="translate(-1247.878 -480.075)" fill="#e8e8e8"/>
            </g>
          </g>
          <g id="Group_1691" data-name="Group 1691" transform="translate(436.741 158.975)">
            <g id="Group_1690" data-name="Group 1690" transform="translate(0)">
              <path id="Path_1469" data-name="Path 1469" d="M1238.212,521.767c1.455,3.327,3.992,6.362,4.158,10.1a.632.632,0,0,0,1.164.333c1.456-2.537,2.953-5.073,4.408-7.61a.624.624,0,0,0-1.081-.624c-1.455,2.537-2.953,5.073-4.408,7.61.374.125.79.208,1.164.333-.166-4.034-2.786-7.153-4.325-10.729-.333-.79-1.414-.166-1.081.582Z" transform="translate(-1238.149 -520.818)" fill="#e8e8e8"/>
            </g>
          </g>
          <g id="Group_1693" data-name="Group 1693" transform="translate(152.48 362.409)">
            <g id="Group_1692" data-name="Group 1692">
              <path id="Path_1470" data-name="Path 1470" d="M555.168,1018.082c25.075-2.329,50.192-5.365,75.351-6.4,25.367-1.04,50.858-.374,76.224.291,14.555.374,29.109,1.081,43.581,2.453.79.083.79-1.164,0-1.247-25.45-2.412-50.983-2.7-76.516-2.994-12.808-.166-25.616-.291-38.382.125-12.434.374-24.826,1.414-37.218,2.537l-43.04,3.992c-.79.042-.79,1.289,0,1.248Z" transform="translate(-554.575 -1010.025)" fill="#e8e8e8"/>
            </g>
          </g>
          <g id="Group_1695" data-name="Group 1695" transform="translate(283.113 345.307)">
            <g id="Group_1694" data-name="Group 1694">
              <path id="Path_1471" data-name="Path 1471" d="M869.165,975.677c10.438,1.954,20.751,1.871,31.271.915,10.812-1,21.582-1.622,32.436-2.121,21.79-.956,43.581-1.83,65.329-2.745,12.434-.541,24.868-1.04,37.3-1.58.79-.042.79-1.289,0-1.248l-65.454,2.745c-21.458.915-43.04,1.372-64.456,3.2-5.822.5-11.644,1.164-17.465,1.248a93.515,93.515,0,0,1-18.63-1.663c-.79-.083-1.123,1.123-.333,1.248Z" transform="translate(-868.714 -968.898)" fill="#e8e8e8"/>
            </g>
          </g>
          <g id="Group_1697" data-name="Group 1697" transform="translate(0 341.772)">
            <g id="Group_1696" data-name="Group 1696">
              <path id="Path_1472" data-name="Path 1472" d="M188.524,961.9q29.068.811,58.135-.25c.79-.042.79-1.289,0-1.248q-29.068,1.061-58.135.25c-.832-.042-.832,1.206,0,1.248Z" transform="translate(-187.9 -960.398)" fill="#e8e8e8"/>
            </g>
          </g>
          <g id="Group_1699" data-name="Group 1699" transform="translate(21.045 357.934)">
            <g id="Group_1698" data-name="Group 1698">
              <path id="Path_1473" data-name="Path 1473" d="M239.253,1001.316c7.069-1.5,14.555-.541,21.707-.208,7.194.374,14.347.707,21.541,1.081,14.638.748,29.234,1.5,43.872,2.2.79.042.79-1.206,0-1.248l-44.7-2.245-22.331-1.123c-6.778-.333-13.681-1.123-20.376.333-.79.166-.457,1.372.291,1.206Z" transform="translate(-238.507 -999.263)" fill="#e8e8e8"/>
            </g>
          </g>
          <g id="Group_1701" data-name="Group 1701" transform="translate(133.31 322.227)">
            <g id="Group_1700" data-name="Group 1700">
              <path id="Path_1474" data-name="Path 1474" d="M509.068,919.47c25.7,1.746,50.983-4.907,76.64-4.824a.625.625,0,0,0,0-1.248c-25.658-.083-50.941,6.529-76.64,4.824-.79-.083-.79,1.206,0,1.248Z" transform="translate(-508.475 -913.398)" fill="#e8e8e8"/>
            </g>
          </g>
          <g id="Group_1703" data-name="Group 1703" transform="translate(113.377 187.691)">
            <g id="Group_1702" data-name="Group 1702">
              <path id="Path_1475" data-name="Path 1475" d="M461.814,601.237a12.4,12.4,0,0,1,.749-2.079c.208-.291.374-.541.582-.832.873-.083,1.788-.208,2.661-.291.249.166.457.665.624.915a7.568,7.568,0,0,0,2.246,2.2,6.925,6.925,0,0,0,5.988.582c5.115-1.871,7.028-8.65,13.265-7.984a7.427,7.427,0,0,1,4.45,2c.915.873,1.622,1.954,2.578,2.786a5.765,5.765,0,0,0,5.863.873c2.5-.873,4.408-2.745,6.279-4.533,2.537-2.37,6.238-5.24,9.606-2.7,2.2,1.622,3.493,4.117,6.238,4.99a8.194,8.194,0,0,0,7.485-1.289c.624-.457,0-1.58-.624-1.081a6.933,6.933,0,0,1-9.356-.749c-1.747-1.7-3.244-3.826-5.822-4.117-6.071-.749-9.232,6.654-14.388,8.359-3.909,1.289-5.2-2.2-7.776-4.117a8.917,8.917,0,0,0-6.7-1.622c-2.5.374-4.408,1.871-6.154,3.576-2.038,2.038-4.2,4.824-7.36,4.824a5.932,5.932,0,0,1-4.907-2.828c-.665-.915-1.206-1.663-2.412-1.788-2.62-.249-3.743,2.5-4.366,4.533a.653.653,0,0,0,1.248.374Z" transform="translate(-460.542 -589.873)" fill="#e8e8e8"/>
            </g>
          </g>
          <g id="Group_1705" data-name="Group 1705" transform="translate(177.562 172.801)">
            <g id="Group_1704" data-name="Group 1704">
              <path id="Path_1476" data-name="Path 1476" d="M616.1,558.821c1.5-4.366,6.737-.665,8.733.956,1.747,1.414,3.784,2.869,6.154,2.786,3.909-.166,5.988-4.158,9.19-5.822,4.45-2.287,7.153,3.659,11.477,3.077,1.913-.25,2.911-1.788,4.117-3.119,1.289-1.414,2.62-1.414,4.45-1,1.7.416,3.451.832,5.156,1.247a.626.626,0,0,0,.333-1.206c-1.7-.416-3.452-.832-5.156-1.248a6.7,6.7,0,0,0-3.493-.291c-2.287.707-2.952,3.743-5.24,4.283-2.453.582-4.865-2.162-6.986-3.036a5.813,5.813,0,0,0-5.24.166c-1.83.956-3.2,2.578-4.824,3.867a6.679,6.679,0,0,1-3.7,1.747c-2.162.125-3.951-1.372-5.531-2.62-1.913-1.5-3.951-3.285-6.57-3.077a4.357,4.357,0,0,0-4.034,2.911c-.291.79.915,1.123,1.164.374Z" transform="translate(-614.892 -554.066)" fill="#e8e8e8"/>
            </g>
          </g>
          <g id="Group_1707" data-name="Group 1707" transform="translate(366.068 55.619)">
            <g id="Group_1706" data-name="Group 1706" transform="translate(0)">
              <path id="Path_1477" data-name="Path 1477" d="M1068.907,272.868c-.374,7.776-.624,15.594-.707,23.412a.625.625,0,0,0,1.248,0c.083-7.818.333-15.594.707-23.412.042-.79-1.206-.79-1.248,0Z" transform="translate(-1068.2 -272.275)" fill="#e8e8e8"/>
            </g>
          </g>
          <g id="Group_1709" data-name="Group 1709" transform="translate(366.823 53.944)">
            <g id="Group_1708" data-name="Group 1708">
              <path id="Path_1478" data-name="Path 1478" d="M1070.8,271.1c9.606-1.331,19.378-2.62,28.943-.374a.626.626,0,0,0,.333-1.206c-9.772-2.329-19.794-1-29.608.374-.79.083-.457,1.289.333,1.206Z" transform="translate(-1070.013 -268.247)" fill="#e8e8e8"/>
            </g>
          </g>
          <g id="Group_1711" data-name="Group 1711" transform="translate(394.844 83.243)">
            <g id="Group_1710" data-name="Group 1710">
              <path id="Path_1479" data-name="Path 1479" d="M1138.313,274.368c.208,15.8-.083,31.646-.915,47.448-.042.79,1.206.79,1.248,0q1.247-23.7.915-47.448a.625.625,0,0,0-1.248,0Z" transform="translate(-1137.398 -273.775)" fill="#e8e8e8"/>
            </g>
          </g>
          <g id="Group_1713" data-name="Group 1713" transform="translate(367.104 99.455)">
            <g id="Group_1712" data-name="Group 1712" transform="translate(0)">
              <path id="Path_1480" data-name="Path 1480" d="M1070.694,378.275c.208,2,.291,4.075.665,6.03a3.225,3.225,0,0,0,1.372,2.2c2.62,1.7,6.862.707,9.731.541l12.268-.749c1.83-.125,4.741-.624,3.618-3.16-.333-.749-1.414-.083-1.081.624.208.457-2.121,1.206-2.537,1.289a16.761,16.761,0,0,1-2.038.125c-1.206.083-2.453.166-3.659.208-2.453.166-4.907.291-7.36.457-2.246.125-4.741.582-6.986.083-2.828-.665-2.453-5.24-2.745-7.61-.083-.832-1.331-.832-1.247-.042Z" transform="translate(-1070.69 -377.687)" fill="#e8e8e8"/>
            </g>
          </g>
          <g id="Group_1715" data-name="Group 1715" transform="translate(348.177 98.217)">
            <g id="Group_1714" data-name="Group 1714">
              <path id="Path_1481" data-name="Path 1481" d="M1036.538,375c-3.659,5.364-7.444,10.646-11.269,15.885a.567.567,0,0,0,0,.624,2.516,2.516,0,0,0,2.994,1.081c1.788-.541,2.661-2.578,3.576-3.992a59.427,59.427,0,0,1,5.032-6.654c.79-.873,1.58-1.747,2.412-2.578.956-.956,2.578-2.994,3.95-3.2.79-.125.457-1.331-.333-1.206-1.247.208-2.079,1.206-2.994,2.038-1.206,1.123-2.37,2.287-3.493,3.535a61.911,61.911,0,0,0-5.9,7.693,17.374,17.374,0,0,1-1.539,2.329c-.665.956-1.372,1.04-2.2.249.249-.333.5-.665.707-1,1.123-1.539,2.246-3.077,3.327-4.616,2.287-3.2,4.533-6.4,6.737-9.648.541-.582-.541-1.206-1-.541Z" transform="translate(-1025.175 -374.71)" fill="#e8e8e8"/>
            </g>
          </g>
          <g id="Group_1717" data-name="Group 1717" transform="translate(357.28 78.125)">
            <g id="Group_1716" data-name="Group 1716" transform="translate(0)">
              <path id="Path_1482" data-name="Path 1482" d="M1055.813,348.313a13.039,13.039,0,0,0,12.143-7.735c1.83-4.283.832-9.856-3.036-12.683-4.45-3.2-10.146-.79-13.6,2.7a14.1,14.1,0,0,0-4.158,7.61,8.757,8.757,0,0,0,.166,3.451,7.339,7.339,0,0,0,.749,1.871c.083.166,2,2.869,1.164,2.828-.79-.083-.79,1.164,0,1.248a1.56,1.56,0,0,0,1.58-2.2c-.291-.956-1.206-1.622-1.7-2.5a7.281,7.281,0,0,1-.707-4.491c.707-5.323,6.362-10.9,11.852-10.812,5.406.042,8.234,6.071,7.111,10.812a11.655,11.655,0,0,1-11.561,8.608.645.645,0,0,0,0,1.289Z" transform="translate(-1047.066 -326.396)" fill="#e8e8e8"/>
            </g>
          </g>
          <g id="Group_1719" data-name="Group 1719" transform="translate(370.803 59.32)">
            <g id="Group_1718" data-name="Group 1718" transform="translate(0)">
              <path id="Path_1483" data-name="Path 1483" d="M1080.715,283.056l-.042-.042v.873c.541-.624,4.283-.582,5.281-.707,1.58-.166,3.2-.291,4.782-.374s3.2-.166,4.824-.208c.707,0,4.408.333,4.657-.333-.291.749.915,1.081,1.206.333.042-.083.042-.125.083-.208a.6.6,0,0,0-.167-.624c-.915-.915-2.578-.5-3.784-.5-2.287,0-4.533.083-6.82.25-2.121.125-4.242.333-6.4.541-1.081.125-3.784-.042-4.574.873a.641.641,0,0,0,0,.873l.042.042c.624.665,1.5-.249.915-.79Z" transform="translate(-1079.586 -281.173)" fill="#e8e8e8"/>
            </g>
          </g>
          <g id="Group_1721" data-name="Group 1721" transform="translate(370.898 66.063)">
            <g id="Group_1720" data-name="Group 1720" transform="translate(0)">
              <path id="Path_1484" data-name="Path 1484" d="M1080.265,298.6a69.488,69.488,0,0,0,12.475.25c.79-.042.79-1.289,0-1.248a69.619,69.619,0,0,1-12.143-.208c-.79-.083-1.123,1.123-.333,1.206Z" transform="translate(-1079.814 -297.39)" fill="#e8e8e8"/>
            </g>
          </g>
          <g id="Group_1723" data-name="Group 1723" transform="translate(367.97 71.22)">
            <g id="Group_1722" data-name="Group 1722" transform="translate(0)">
              <path id="Path_1485" data-name="Path 1485" d="M1073.325,310.543c-.125.125-.25.291-.374.416a.64.64,0,0,0,.457,1.081,171.382,171.382,0,0,0,21.665-1c.79-.083.79-1.331,0-1.247a171.405,171.405,0,0,1-21.665,1c.166.374.291.707.457,1.081.125-.125.25-.291.374-.416.5-.624-.374-1.5-.915-.915Z" transform="translate(-1072.774 -309.79)" fill="#e8e8e8"/>
            </g>
          </g>
          <g id="Group_1725" data-name="Group 1725" transform="translate(376.839 77.078)">
            <g id="Group_1724" data-name="Group 1724">
              <path id="Path_1486" data-name="Path 1486" d="M1094.724,325.592a46.83,46.83,0,0,0,11.311-.5c.79-.125.457-1.331-.333-1.206a46.288,46.288,0,0,1-10.978.457c-.832-.042-.832,1.206,0,1.248Z" transform="translate(-1094.1 -323.878)" fill="#e8e8e8"/>
            </g>
          </g>
          <g id="Group_1727" data-name="Group 1727" transform="translate(360.691 82.095)">
            <g id="Group_1726" data-name="Group 1726" transform="translate(0)">
              <path id="Path_1487" data-name="Path 1487" d="M1061.893,349.481c-3.368.166-6.238-2.786-5.157-6.2a9.694,9.694,0,0,1,6.778-6.03,4.755,4.755,0,0,1,3.909,1.081c1.539,1.414,1.123,3.493.416,5.2-1.206,2.994-3.41,5.7-6.778,6.071-.79.083-.79,1.331,0,1.248,4.325-.457,7.4-4.158,8.442-8.234,1-3.826-1.83-6.986-5.78-6.654-3.66.333-7.693,4.034-8.359,7.652a6.112,6.112,0,0,0,6.529,7.111c.79-.042.79-1.289,0-1.248Z" transform="translate(-1055.268 -335.942)" fill="#e8e8e8"/>
            </g>
          </g>
          <g id="Group_1729" data-name="Group 1729" transform="translate(363.404 83.611)">
            <g id="Group_1728" data-name="Group 1728">
              <path id="Path_1488" data-name="Path 1488" d="M1066.411,339.925c-1.663,3.576-3.2,7.194-4.574,10.854-.291.749.915,1.081,1.206.333,1.372-3.576,2.828-7.111,4.45-10.562.333-.748-.707-1.372-1.081-.624Z" transform="translate(-1061.792 -339.587)" fill="#e8e8e8"/>
            </g>
          </g>
          <g id="Group_1731" data-name="Group 1731" transform="translate(366.671 87.196)">
            <g id="Group_1730" data-name="Group 1730" transform="translate(0)">
              <path id="Path_1489" data-name="Path 1489" d="M1072.914,348.537c-1.081,2.246-2.121,4.491-3.2,6.737-.333.707.749,1.372,1.081.624,1.081-2.246,2.121-4.491,3.2-6.737.333-.707-.707-1.372-1.081-.624Z" transform="translate(-1069.649 -348.208)" fill="#e8e8e8"/>
            </g>
          </g>
          <g id="Group_1733" data-name="Group 1733" transform="translate(60.797 19.025)">
            <g id="Group_1732" data-name="Group 1732">
              <path id="Path_1490" data-name="Path 1490" d="M334.1,184.868v11.394a.625.625,0,0,0,1.248,0V184.868a.625.625,0,0,0-1.248,0Z" transform="translate(-334.1 -184.275)" fill="#e8e8e8"/>
            </g>
          </g>
          <g id="Group_1735" data-name="Group 1735" transform="translate(60.994 30.305)">
            <g id="Group_1734" data-name="Group 1734">
              <path id="Path_1491" data-name="Path 1491" d="M335.168,212.648H345.73a.625.625,0,0,0,0-1.248H335.168a.625.625,0,0,0,0,1.248Z" transform="translate(-334.575 -211.4)" fill="#e8e8e8"/>
            </g>
          </g>
          <g id="Group_1737" data-name="Group 1737" transform="translate(71.65 17.237)">
            <g id="Group_1736" data-name="Group 1736">
              <path id="Path_1492" data-name="Path 1492" d="M361.448,192.96V180.568a.625.625,0,0,0-1.247,0V192.96a.625.625,0,0,0,1.247,0Z" transform="translate(-360.2 -179.975)" fill="#e8e8e8"/>
            </g>
          </g>
          <g id="Group_1739" data-name="Group 1739" transform="translate(61.036 17.039)">
            <g id="Group_1738" data-name="Group 1738">
              <path id="Path_1493" data-name="Path 1493" d="M346.08,179.5H335.268a.625.625,0,0,0,0,1.248H346.08a.625.625,0,0,0,0-1.248Z" transform="translate(-334.675 -179.5)" fill="#e8e8e8"/>
            </g>
          </g>
          <g id="Group_1741" data-name="Group 1741" transform="translate(66.078 31.625)">
            <g id="Group_1740" data-name="Group 1740">
              <path id="Path_1494" data-name="Path 1494" d="M346.8,215.168v12.683a.625.625,0,0,0,1.248,0V215.168a.625.625,0,0,0-1.248,0Z" transform="translate(-346.8 -214.575)" fill="#e8e8e8"/>
            </g>
          </g>
          <g id="Group_1743" data-name="Group 1743" transform="translate(50.375 31.029)">
            <g id="Group_1742" data-name="Group 1742">
              <path id="Path_1495" data-name="Path 1495" d="M310.1,226.847q6.924-6.612,14.43-12.683c.624-.5-.25-1.372-.873-.873-4.99,4.034-9.772,8.234-14.43,12.683-.582.541.291,1.414.873.873Z" transform="translate(-309.038 -213.142)" fill="#e8e8e8"/>
            </g>
          </g>
          <g id="Group_1745" data-name="Group 1745" transform="translate(67.15 31.258)">
            <g id="Group_1744" data-name="Group 1744">
              <path id="Path_1496" data-name="Path 1496" d="M349.637,214.9l14.97,11.353c.624.5,1.248-.582.624-1.081l-14.97-11.353c-.624-.5-1.248.582-.624,1.081Z" transform="translate(-349.379 -213.691)" fill="#e8e8e8"/>
            </g>
          </g>
          <g id="Group_1747" data-name="Group 1747" transform="translate(46.024 44.984)">
            <g id="Group_1746" data-name="Group 1746">
              <path id="Path_1497" data-name="Path 1497" d="M299.168,247.948h8.275a.625.625,0,0,0,0-1.248h-8.275a.625.625,0,0,0,0,1.248Z" transform="translate(-298.575 -246.7)" fill="#e8e8e8"/>
            </g>
          </g>
          <g id="Group_1749" data-name="Group 1749" transform="translate(54.143 45.858)">
            <g id="Group_1748" data-name="Group 1748">
              <path id="Path_1498" data-name="Path 1498" d="M318.1,249.424v9.4a.625.625,0,0,0,1.248,0v-9.4a.624.624,0,1,0-1.248,0Z" transform="translate(-318.1 -248.8)" fill="#e8e8e8"/>
            </g>
          </g>
          <g id="Group_1751" data-name="Group 1751" transform="translate(45.701 45.275)">
            <g id="Group_1750" data-name="Group 1750">
              <path id="Path_1499" data-name="Path 1499" d="M297.8,248.024V259a.625.625,0,0,0,1.248,0V248.024a.624.624,0,0,0-1.248,0Z" transform="translate(-297.8 -247.4)" fill="#e8e8e8"/>
            </g>
          </g>
          <g id="Group_1753" data-name="Group 1753" transform="translate(45.608 56.378)">
            <g id="Group_1752" data-name="Group 1752">
              <path id="Path_1500" data-name="Path 1500" d="M298.168,275.348h7.693a.625.625,0,0,0,0-1.248h-7.693a.625.625,0,0,0,0,1.248Z" transform="translate(-297.575 -274.1)" fill="#e8e8e8"/>
            </g>
          </g>
          <g id="Group_1755" data-name="Group 1755" transform="translate(62.252 45.566)">
            <g id="Group_1754" data-name="Group 1754">
              <path id="Path_1501" data-name="Path 1501" d="M337.6,248.724v10.812a.625.625,0,0,0,1.248,0V248.724a.624.624,0,0,0-1.248,0Z" transform="translate(-337.6 -248.1)" fill="#e8e8e8"/>
            </g>
          </g>
          <g id="Group_1757" data-name="Group 1757" transform="translate(62.283 56.087)">
            <g id="Group_1756" data-name="Group 1756">
              <path id="Path_1502" data-name="Path 1502" d="M338.268,274.648h7.568a.625.625,0,0,0,0-1.248h-7.568a.625.625,0,0,0,0,1.248Z" transform="translate(-337.675 -273.4)" fill="#e8e8e8"/>
            </g>
          </g>
          <g id="Group_1759" data-name="Group 1759" transform="translate(62.699 45.566)">
            <g id="Group_1758" data-name="Group 1758">
              <path id="Path_1503" data-name="Path 1503" d="M339.268,249.348h6.7a.625.625,0,0,0,0-1.248h-6.7a.625.625,0,0,0,0,1.248Z" transform="translate(-338.675 -248.1)" fill="#e8e8e8"/>
            </g>
          </g>
          <g id="Group_1761" data-name="Group 1761" transform="translate(69.529 45.431)">
            <g id="Group_1760" data-name="Group 1760">
              <path id="Path_1504" data-name="Path 1504" d="M355.1,248.368v10.271a.625.625,0,0,0,1.248,0V248.368a.625.625,0,0,0-1.248,0Z" transform="translate(-355.1 -247.775)" fill="#e8e8e8"/>
            </g>
          </g>
          <g id="Group_1763" data-name="Group 1763" transform="translate(79.676 45.431)">
            <g id="Group_1762" data-name="Group 1762">
              <path id="Path_1505" data-name="Path 1505" d="M379.708,248.368c-.125,2.7-.208,5.406-.208,8.109a.625.625,0,0,0,1.247,0c0-2.7.083-5.406.208-8.109.042-.79-1.206-.79-1.247,0Z" transform="translate(-379.5 -247.775)" fill="#e8e8e8"/>
            </g>
          </g>
          <g id="Group_1765" data-name="Group 1765" transform="translate(79.816 44.149)">
            <g id="Group_1764" data-name="Group 1764">
              <path id="Path_1506" data-name="Path 1506" d="M380.445,246.857c2.745-.291,5.489-.624,8.234-.915.79-.083.79-1.331,0-1.248-2.745.291-5.489.624-8.234.915-.79.083-.832,1.331,0,1.248Z" transform="translate(-379.837 -244.69)" fill="#e8e8e8"/>
            </g>
          </g>
          <g id="Group_1767" data-name="Group 1767" transform="translate(88.075 44.433)">
            <g id="Group_1766" data-name="Group 1766">
              <path id="Path_1507" data-name="Path 1507" d="M399.865,245.968a29.042,29.042,0,0,0,.291,8.275c.125.79,1.331.457,1.206-.333a28.274,28.274,0,0,1-.25-7.943c.083-.79-1.164-.79-1.248,0Z" transform="translate(-399.697 -245.375)" fill="#e8e8e8"/>
            </g>
          </g>
          <g id="Group_1769" data-name="Group 1769" transform="translate(80.056 52.751)">
            <g id="Group_1768" data-name="Group 1768">
              <path id="Path_1508" data-name="Path 1508" d="M381.2,267.841l8.234-1.248c.79-.125.457-1.331-.333-1.206l-8.234,1.248c-.79.125-.457,1.289.333,1.206Z" transform="translate(-380.414 -265.378)" fill="#e8e8e8"/>
            </g>
          </g>
          <g id="Group_1771" data-name="Group 1771" transform="translate(61.773 57.425)">
            <g id="Group_1770" data-name="Group 1770">
              <path id="Path_1509" data-name="Path 1509" d="M340.587,276.9a62.478,62.478,0,0,0-4.075,7.277c-.333.707.748,1.372,1.081.624a65.285,65.285,0,0,1,4.075-7.277c.416-.665-.665-1.289-1.081-.624Z" transform="translate(-336.449 -276.616)" fill="#e8e8e8"/>
            </g>
          </g>
          <g id="Group_1773" data-name="Group 1773" transform="translate(66.175 57.3)">
            <g id="Group_1772" data-name="Group 1772">
              <path id="Path_1510" data-name="Path 1510" d="M347.145,277.224a42.223,42.223,0,0,1,3.992,6.529c.374.707,1.455.083,1.081-.624a47.231,47.231,0,0,0-3.992-6.529c-.457-.665-1.539-.042-1.081.624Z" transform="translate(-347.034 -276.316)" fill="#e8e8e8"/>
            </g>
          </g>
          <g id="Group_1775" data-name="Group 1775" transform="translate(58.998 65.401)">
            <g id="Group_1774" data-name="Group 1774">
              <path id="Path_1511" data-name="Path 1511" d="M330.368,297c.873,0,1.747,0,2.661.042a11.754,11.754,0,0,1,1.206.083c.749.042.665-.208.79.457a22.187,22.187,0,0,1-.166,5.24c-.083.79,1.164.79,1.248,0,.083-1.248.166-2.537.166-3.784a5.8,5.8,0,0,0-.166-2.537c-.374-.624-1.248-.541-1.871-.582q-1.934-.125-3.867-.125c-.79-.042-.79,1.206,0,1.206Z" transform="translate(-329.775 -295.798)" fill="#e8e8e8"/>
            </g>
          </g>
          <g id="Group_1777" data-name="Group 1777" transform="translate(58.755 65.958)">
            <g id="Group_1776" data-name="Group 1776">
              <path id="Path_1512" data-name="Path 1512" d="M329.194,297.746c.125,1.455.25,2.869.374,4.325.083,1.164-.083,2.869.374,3.992a.927.927,0,0,0,.832.707c1.081.208,2.7-.333,3.784-.5.79-.125.457-1.289-.333-1.206a9.723,9.723,0,0,1-2.62.374c-.79-.208-.624-1.289-.665-2.121-.166-1.871-.333-3.7-.5-5.572-.083-.79-1.331-.832-1.248,0Z" transform="translate(-329.19 -297.137)" fill="#e8e8e8"/>
            </g>
          </g>
          <g id="Group_1779" data-name="Group 1779" transform="translate(67.991 65.775)">
            <g id="Group_1778" data-name="Group 1778">
              <path id="Path_1513" data-name="Path 1513" d="M351.566,297.321a35.832,35.832,0,0,0-.083,3.659,30.216,30.216,0,0,1,.25,3.119c.208-.042.416-.125.624-.166-.042,0-.083-.042-.166-.042a7.1,7.1,0,0,0,.457.582v-.166a7.107,7.107,0,0,1-.457.582.153.153,0,0,0,.125-.042c.79-.166.457-1.372-.333-1.206a.153.153,0,0,0-.125.042.578.578,0,0,0-.457.582v.166a.624.624,0,0,0,.457.582c1.081.208,1.081-.79,1.04-1.58a38.989,38.989,0,0,1-.083-6.238c.042-.707-1.206-.665-1.248.125Z" transform="translate(-351.4 -296.696)" fill="#e8e8e8"/>
            </g>
          </g>
          <g id="Group_1781" data-name="Group 1781" transform="translate(67.658 65.095)">
            <g id="Group_1780" data-name="Group 1780">
              <path id="Path_1514" data-name="Path 1514" d="M351.848,296.658c0-.291,2.661-.374,3.036-.333,1.04.166.832.249,1,1a5.878,5.878,0,0,1-.083,1.7c-.042,1.04-.042,2.038,0,3.077,0,.582.416,2.329.125,2.745a6.646,6.646,0,0,1,.873-.208c-.042,0-.083-.042-.125-.042.083.249.208.457.291.707,0-.042.042-.083.042-.125a.626.626,0,0,0-1.206-.333c0,.042-.042.083-.042.125a.615.615,0,0,0,.291.707c.042,0,.083.042.125.042a.7.7,0,0,0,.873-.208c.291-.416.166-.832.125-1.331-.042-1.123-.125-2.287-.125-3.41s.042-2.287.083-3.41a2.424,2.424,0,0,0-.166-1.622c-.707-.956-2.953-.665-3.867-.541-1.04.125-2.412.25-2.5,1.5,0,.748,1.248.748,1.248-.042Z" transform="translate(-350.6 -295.061)" fill="#e8e8e8"/>
            </g>
          </g>
          <g id="Group_1783" data-name="Group 1783" transform="translate(68.407 73.819)">
            <g id="Group_1782" data-name="Group 1782">
              <path id="Path_1515" data-name="Path 1515" d="M353.024,317.354a12.3,12.3,0,0,1,3.7.333.626.626,0,0,0,.333-1.206,12.02,12.02,0,0,0-4.034-.416c-.832.083-.832,1.331,0,1.289Z" transform="translate(-352.4 -316.041)" fill="#e8e8e8"/>
            </g>
          </g>
          <g id="Group_1785" data-name="Group 1785" transform="translate(81.971 55.126)">
            <g id="Group_1784" data-name="Group 1784">
              <path id="Path_1516" data-name="Path 1516" d="M387.714,271.425c-1,2.2-1.871,4.491-2.661,6.778-.249.749.956,1.081,1.206.333.749-2.2,1.58-4.366,2.537-6.487.333-.749-.749-1.372-1.081-.624Z" transform="translate(-385.019 -271.087)" fill="#e8e8e8"/>
            </g>
          </g>
          <g id="Group_1787" data-name="Group 1787" transform="translate(77.519 63.267)">
            <g id="Group_1786" data-name="Group 1786">
              <path id="Path_1517" data-name="Path 1517" d="M375.1,292.718a20.668,20.668,0,0,1,6.4-.79c.79.042.79-1.206,0-1.248a21.71,21.71,0,0,0-6.737.832.626.626,0,0,0,.333,1.206Z" transform="translate(-374.314 -290.667)" fill="#e8e8e8"/>
            </g>
          </g>
          <g id="Group_1789" data-name="Group 1789" transform="translate(78.078 63.396)">
            <g id="Group_1788" data-name="Group 1788">
              <path id="Path_1518" data-name="Path 1518" d="M375.841,292.316a7.862,7.862,0,0,0,.042,3.41,35.38,35.38,0,0,1,.083,4.2c-.083,1.83.374,2.038,2.2,1.871,1.248-.125,2.953.208,3.41-1.164A23.271,23.271,0,0,0,382,296.1c.125-1.5.291-3.036.416-4.533.083-.79-1.164-.79-1.248,0-.166,1.747-.333,3.535-.5,5.281a21.267,21.267,0,0,1-.208,2.287c-.25,1.164-.374,1.248-1.58,1.372-.374.042-.707.083-1.081.125-.707.249-.915.042-.624-.665a12.124,12.124,0,0,1,.042-2.121c-.042-1.58-.665-3.7-.208-5.2.291-.79-.915-1.123-1.164-.333Z" transform="translate(-375.657 -290.975)" fill="#e8e8e8"/>
            </g>
          </g>
          <g id="Group_1791" data-name="Group 1791" transform="translate(86.302 55.693)">
            <g id="Group_1790" data-name="Group 1790">
              <path id="Path_1519" data-name="Path 1519" d="M395.545,273.387a44.617,44.617,0,0,1,2.578,4.574c.333.707,1.414.083,1.081-.624a41.441,41.441,0,0,0-2.578-4.574c-.457-.707-1.539-.083-1.081.624Z" transform="translate(-395.434 -272.452)" fill="#e8e8e8"/>
            </g>
          </g>
          <g id="Group_1793" data-name="Group 1793" transform="translate(87.203 61.784)">
            <g id="Group_1792" data-name="Group 1792">
              <path id="Path_1520" data-name="Path 1520" d="M398.224,288.348h6.238a.625.625,0,0,0,0-1.248h-.374a.625.625,0,0,0,0,1.248h.374a.625.625,0,0,0,0-1.248h-6.238a.624.624,0,0,0,0,1.248Z" transform="translate(-397.6 -287.1)" fill="#e8e8e8"/>
            </g>
          </g>
          <g id="Group_1795" data-name="Group 1795" transform="translate(87.199 62.273)">
            <g id="Group_1794" data-name="Group 1794">
              <path id="Path_1521" data-name="Path 1521" d="M397.594,288.992c.166,1.58.291,3.16.333,4.741.042,1.123-.333,3.036.166,4.075.291.624.665.707,1.331.707a46.238,46.238,0,0,0,4.741-.624.667.667,0,0,0,.457-.582c-.042-2.828-.083-5.614-.125-8.442a.625.625,0,0,0-1.248,0c.042,2.828.083,5.614.125,8.442a7.115,7.115,0,0,1,.457-.582c-1,.125-2,.25-2.994.416-.333.042-1.289.333-1.58.083-.208-.166,0-1.455,0-1.7-.042-2.162-.166-4.325-.374-6.446-.125-.873-1.372-.873-1.289-.083Z" transform="translate(-397.59 -288.275)" fill="#e8e8e8"/>
            </g>
          </g>
          <g id="Group_1797" data-name="Group 1797" transform="translate(39.979 59.636)">
            <g id="Group_1796" data-name="Group 1796">
              <path id="Path_1522" data-name="Path 1522" d="M285.1,288.7a71.467,71.467,0,0,1,6.737-5.572c.624-.457,0-1.539-.624-1.081a71.57,71.57,0,0,0-6.986,5.78c-.582.541.291,1.414.873.873Z" transform="translate(-284.038 -281.934)" fill="#e8e8e8"/>
            </g>
          </g>
          <g id="Group_1799" data-name="Group 1799" transform="translate(47.296 59.379)">
            <g id="Group_1798" data-name="Group 1798">
              <path id="Path_1523" data-name="Path 1523" d="M301.745,282.224a31.028,31.028,0,0,1,3.119,5.614c.333.749,1.414.083,1.081-.624a33.448,33.448,0,0,0-3.119-5.614c-.457-.665-1.539-.042-1.081.624Z" transform="translate(-301.634 -281.316)" fill="#e8e8e8"/>
            </g>
          </g>
          <g id="Group_1801" data-name="Group 1801" transform="translate(34.926 66.984)">
            <g id="Group_1800" data-name="Group 1800">
              <path id="Path_1524" data-name="Path 1524" d="M272.475,301.307c1.123-.083,2.2-.166,3.327-.25a9.481,9.481,0,0,1,1.5-.125c.582-.208.749-.166.5.166a1.091,1.091,0,0,0-.208.79,35.322,35.322,0,0,0-.624,6.279c.374-.166.707-.291,1.081-.457a.575.575,0,0,1-.125-.166c-.541-.582-1.414.291-.873.873a.574.574,0,0,1,.125.166.644.644,0,0,0,1.081-.457,45.2,45.2,0,0,1,.457-5.323c.125-.749.665-2,.208-2.745-.374-.582-1-.457-1.58-.416-1.622.125-3.2.25-4.824.374-.832.125-.832,1.372-.042,1.289Z" transform="translate(-271.887 -299.603)" fill="#e8e8e8"/>
            </g>
          </g>
          <g id="Group_1803" data-name="Group 1803" transform="translate(33.925 67.481)">
            <g id="Group_1802" data-name="Group 1802">
              <path id="Path_1525" data-name="Path 1525" d="M271.9,300.8h-.166a.711.711,0,0,0-.541.291c-.665,1.123-.624,3.077-.832,4.366l-.873,5.489c-.042.333.083.707.416.749a9.723,9.723,0,0,0,5.656-.374c.749-.291.416-1.5-.333-1.206a8.523,8.523,0,0,1-4.99.374c.125.249.291.5.416.749.125-.832,1.58-9.19,1.164-9.232.873.125.873-1.123.083-1.206Z" transform="translate(-269.481 -300.8)" fill="#e8e8e8"/>
            </g>
          </g>
          <g id="Group_1805" data-name="Group 1805" transform="translate(47.384 66.729)">
            <g id="Group_1804" data-name="Group 1804">
              <path id="Path_1526" data-name="Path 1526" d="M302.118,299.535l-.042.042h.873c-.042,0-.042-.042-.083-.042v.873a6.457,6.457,0,0,1,.956-.042c.457-.042.956-.083,1.414-.083a18.39,18.39,0,0,1,2.62.083c-.166-.374-.291-.707-.457-1.081a.906.906,0,0,0-.208.166c-.79.083-.79,1.331,0,1.248a1.529,1.529,0,0,0,1.123-.541.64.64,0,0,0-.457-1.081,26.27,26.27,0,0,0-3.618-.042c-.582.042-1.788-.083-2.2.457a.6.6,0,0,0,0,.873c.042,0,.042.042.083.042a.6.6,0,0,0,.873,0l.042-.042c.5-.541-.374-1.414-.915-.832Z" transform="translate(-301.847 -298.991)" fill="#e8e8e8"/>
            </g>
          </g>
          <g id="Group_1807" data-name="Group 1807" transform="translate(46.556 66.951)">
            <g id="Group_1806" data-name="Group 1806">
              <path id="Path_1527" data-name="Path 1527" d="M300.456,300.138c-.125,1.7-.25,3.41-.333,5.115-.042.956-.582,3.41,0,4.283a1.092,1.092,0,0,0,1.123.541,7.324,7.324,0,0,0,1.622-.5,10.95,10.95,0,0,1,3.077-.374.625.625,0,0,0,0-1.247,12.319,12.319,0,0,0-2.745.291c-.416.083-1.206.541-1.58.457-.291.208-.416.166-.333-.166a4.345,4.345,0,0,1,0-1.04c.042-2.412.25-4.865.416-7.277a.626.626,0,1,0-1.248-.083Z" transform="translate(-299.855 -299.524)" fill="#e8e8e8"/>
            </g>
          </g>
          <g id="Group_1809" data-name="Group 1809" transform="translate(52.058 67.097)">
            <g id="Group_1808" data-name="Group 1808">
              <path id="Path_1528" data-name="Path 1528" d="M313.549,300.468a62.819,62.819,0,0,0-.457,8.4.625.625,0,0,0,1.248,0,62.814,62.814,0,0,1,.457-8.4c.125-.79-1.123-.79-1.248,0Z" transform="translate(-313.085 -299.875)" fill="#e8e8e8"/>
            </g>
          </g>
          <g id="Group_1811" data-name="Group 1811" transform="translate(384.635 241.202)">
            <g id="Group_1810" data-name="Group 1810">
              <path id="Path_1529" data-name="Path 1529" d="M1112.912,719.487a266.376,266.376,0,0,1,20.46,67.783c.125.79,1.331.458,1.206-.333a268.734,268.734,0,0,0-20.584-68.074c-.333-.707-1.414-.083-1.081.624Z" transform="translate(-1112.849 -718.552)" fill="#e8e8e8"/>
            </g>
          </g>
          <g id="Group_1813" data-name="Group 1813" transform="translate(406.236 205.341)">
            <g id="Group_1812" data-name="Group 1812">
              <path id="Path_1530" data-name="Path 1530" d="M1195.027,632.6c-12.143,18.547-22.705,38.091-30.19,59.008-.291.748.915,1.081,1.206.333,7.443-20.834,17.964-40.254,30.065-58.717.416-.665-.666-1.289-1.081-.624Z" transform="translate(-1164.792 -632.316)" fill="#e8e8e8"/>
            </g>
          </g>
          <g id="Group_1815" data-name="Group 1815" transform="translate(380.005 263.695)">
            <g id="Group_1814" data-name="Group 1814">
              <path id="Path_1531" data-name="Path 1531" d="M1102.165,773.872a28.579,28.579,0,0,1,16.384,11.81c.457.665,1.539.042,1.081-.624a29.912,29.912,0,0,0-17.133-12.392.626.626,0,0,0-.333,1.206Z" transform="translate(-1101.714 -772.642)" fill="#e8e8e8"/>
            </g>
          </g>
          <g id="Group_1817" data-name="Group 1817" transform="translate(392.216 247.383)">
            <g id="Group_1816" data-name="Group 1816" transform="translate(0)">
              <path id="Path_1532" data-name="Path 1532" d="M1135.537,733.7a32.48,32.48,0,0,0-4.449,12.309c-.125.79,1.081,1.123,1.206.333a31.881,31.881,0,0,1,4.325-12.018c.416-.665-.666-1.289-1.081-.624Z" transform="translate(-1131.078 -733.416)" fill="#e8e8e8"/>
            </g>
          </g>
          <g id="Group_1819" data-name="Group 1819" transform="translate(409.437 223.19)">
            <g id="Group_1818" data-name="Group 1818" transform="translate(0)">
              <path id="Path_1533" data-name="Path 1533" d="M1172.66,676.346a24.015,24.015,0,0,1,4.533,7.61c.5,1.247.915,2.537,1.289,3.784.374,1.206,1.248,2.994.749,4.2-.291.749.915,1.081,1.206.333.5-1.206,0-2.412-.374-3.576-.5-1.7-1.04-3.41-1.7-5.073a26.411,26.411,0,0,0-4.865-8.192c-.5-.582-1.372.291-.832.915Z" transform="translate(-1172.49 -675.24)" fill="#e8e8e8"/>
            </g>
          </g>
          <g id="Group_1821" data-name="Group 1821" transform="translate(422.682 215.54)">
            <g id="Group_1820" data-name="Group 1820" transform="translate(0)">
              <path id="Path_1534" data-name="Path 1534" d="M1205.364,670.381a39.516,39.516,0,0,1,19.586-12.309.626.626,0,0,0-.333-1.206,40.806,40.806,0,0,0-20.127,12.6c-.5.624.374,1.539.873.915Z" transform="translate(-1204.342 -656.842)" fill="#e8e8e8"/>
            </g>
          </g>
          <g id="Group_1823" data-name="Group 1823" transform="translate(407.978 249.967)">
            <g id="Group_1822" data-name="Group 1822">
              <path id="Path_1535" data-name="Path 1535" d="M1170.029,752.134a40.3,40.3,0,0,1,12.808-7.4c2.121-.79,4.242-1.414,6.4-2.038,1.206-.333,2.37-.624,3.576-.956.582-.125,3.036-1.123,3.493-.873a6.637,6.637,0,0,1-.208-.873c-.042.042-.042.083-.083.125a6.641,6.641,0,0,1,.873-.208c-.042,0-.083-.042-.125-.042-.707-.374-1.331.707-.624,1.081.042,0,.083.042.125.042a.665.665,0,0,0,.873-.208c.042-.042.042-.083.083-.125a.666.666,0,0,0-.208-.873c-.582-.333-1.206-.042-1.83.083-1.414.333-2.828.665-4.241,1.04-2.7.707-5.406,1.5-8.068,2.412a40.4,40.4,0,0,0-13.681,7.818c-.624.624.249,1.539.832,1Z" transform="translate(-1168.982 -739.63)" fill="#e8e8e8"/>
            </g>
          </g>
          <g id="Group_1825" data-name="Group 1825" transform="translate(387.395 310.418)">
            <g id="Group_1824" data-name="Group 1824" transform="translate(0)">
              <path id="Path_1536" data-name="Path 1536" d="M1119.907,888.368c9.44,2.287,19.046.582,28.485-.541a304.378,304.378,0,0,1,30.773-1.58.625.625,0,0,0,0-1.248c-10.022.166-20.044.374-29.983,1.5-9.606,1.123-19.378,2.994-28.943.665a.627.627,0,0,0-.333,1.206Z" transform="translate(-1119.485 -885)" fill="#e8e8e8"/>
            </g>
          </g>
          <g id="Group_1827" data-name="Group 1827" transform="translate(416.999 306.342)">
            <g id="Group_1826" data-name="Group 1826" transform="translate(0)">
              <path id="Path_1537" data-name="Path 1537" d="M1191.267,879.107q25.2-1.31,50.4-2.661c.79-.042.79-1.289,0-1.248q-25.2,1.31-50.4,2.661c-.79.042-.79,1.289,0,1.248Z" transform="translate(-1190.675 -875.197)" fill="#e8e8e8"/>
            </g>
          </g>
          <g id="Group_1829" data-name="Group 1829" transform="translate(359.248 174.771)">
            <g id="Group_1828" data-name="Group 1828" transform="translate(0)">
              <path id="Path_1538" data-name="Path 1538" d="M1062.029,574.231c-4.117.79-9.149-3.16-9.024-7.527.166-4.949,6.362-6.612,10.313-6.654,4.366,0,7.444,3.368,6.4,7.776a8.738,8.738,0,0,1-3.16,4.7c-.873.707-4.408,3.285-5.406,2.038-.5-.624-1.372.249-.873.873,1.331,1.663,4.075-.042,5.489-.832a11.14,11.14,0,0,0,4.949-5.656c1.663-4.865-1.289-9.731-6.4-10.1-4.865-.374-12.392,1.871-12.517,7.859-.083,5.24,5.655,9.648,10.6,8.733.749-.125.416-1.331-.374-1.206Z" transform="translate(-1051.798 -558.805)" fill="#e8e8e8"/>
            </g>
          </g>
          <g id="Group_1831" data-name="Group 1831" transform="translate(46.206 209.574)">
            <g id="Group_1830" data-name="Group 1830">
              <path id="Path_1539" data-name="Path 1539" d="M303.083,642.706a30.759,30.759,0,0,0-3.992,5.739c-.374.707.707,1.331,1.081.624A30.927,30.927,0,0,1,304,643.579c.5-.582-.374-1.5-.915-.873Z" transform="translate(-299.013 -642.497)" fill="#161616"/>
            </g>
          </g>
          <g id="Group_1833" data-name="Group 1833" transform="translate(50.106 209.374)">
            <g id="Group_1832" data-name="Group 1832">
              <path id="Path_1540" data-name="Path 1540" d="M308.52,642.924c1.248,1.746,2.5,3.451,3.743,5.2.457.665,1.539.042,1.081-.624-1.248-1.747-2.5-3.452-3.743-5.2-.5-.665-1.58-.042-1.081.624Z" transform="translate(-308.391 -642.016)" fill="#161616"/>
            </g>
          </g>
          <g id="Group_1835" data-name="Group 1835" transform="translate(50.15 212.128)">
            <g id="Group_1834" data-name="Group 1834">
              <path id="Path_1541" data-name="Path 1541" d="M308.5,649.245c.374,14.679.707,29.359,1.081,44.08a.625.625,0,0,0,1.248,0c-.374-14.679-.707-29.359-1.081-44.08-.042-.79-1.289-.832-1.248,0Z" transform="translate(-308.498 -648.637)" fill="#161616"/>
            </g>
          </g>
          <g id="Group_1837" data-name="Group 1837" transform="translate(52.012 256.733)">
            <g id="Group_1836" data-name="Group 1836">
              <path id="Path_1542" data-name="Path 1542" d="M313.568,757.148h55.391a.625.625,0,0,0,0-1.248H313.568a.625.625,0,0,0,0,1.248Z" transform="translate(-312.975 -755.9)" fill="#161616"/>
            </g>
          </g>
          <g id="Group_1839" data-name="Group 1839" transform="translate(104.955 254.87)">
            <g id="Group_1838" data-name="Group 1838">
              <path id="Path_1543" data-name="Path 1543" d="M440.918,753.284c1.289.5,2.537,1,3.826,1.5-.166-.458-.374-.915-.541-1.372a7.2,7.2,0,0,1-2.578,2.661.942.942,0,0,0,.956,1.622,9,9,0,0,0,3.285-3.327.941.941,0,0,0-.541-1.372c-1.289-.5-2.537-1-3.826-1.5-1.206-.458-1.7,1.331-.582,1.788Z" transform="translate(-440.29 -751.422)" fill="#161616"/>
            </g>
          </g>
          <g id="Group_1841" data-name="Group 1841" transform="translate(423.216 26.565)">
            <g id="Group_1840" data-name="Group 1840">
              <path id="Path_1544" data-name="Path 1544" d="M1207.362,207.975c-1.663-2.2.707-5.572,3.285-3.909a2.494,2.494,0,0,1,.873,3.493,2.816,2.816,0,0,1-3.452.956c-.707-.374-1.331.707-.624,1.081a4.122,4.122,0,0,0,4.99-1.164,3.67,3.67,0,0,0-.749-5.156,3.632,3.632,0,0,0-5.032.291,4.128,4.128,0,0,0-.291,5.073c.374.582,1.456-.042,1-.665Z" transform="translate(-1205.626 -202.405)" fill="#353434"/>
            </g>
          </g>
          <g id="Group_1843" data-name="Group 1843" transform="translate(458.258 176.081)">
            <g id="Group_1842" data-name="Group 1842">
              <path id="Path_1545" data-name="Path 1545" d="M1291.184,576.154a3.1,3.1,0,0,1,3.285-3.285,4.736,4.736,0,0,0,2.162-.125c1.414-.624,1.954-2.245,2.412-3.618.665-2,1.164-2.953,3.659-2.329.666.166,1.081.5,1.788.25,2.079-.79.832-4.366,3.992-3.784.79.166,1.123-1.04.333-1.206a3.427,3.427,0,0,0-2.828.5c-.79.582-.873,1.289-1.331,2.038-.042.79-.582,1.123-1.58,1a4.959,4.959,0,0,0-.665-.333c-.458-.042-.707-.291-1.206-.25a3.041,3.041,0,0,0-2.162,1.289,11.149,11.149,0,0,0-1.455,3.285c-.458,1.164-.915,2-2.329,2.121-.624.042-1.206-.166-1.83-.083a4.31,4.31,0,0,0-3.535,4.533c.083.832,1.331.832,1.289,0Z" transform="translate(-1289.892 -561.955)" fill="#282828"/>
            </g>
          </g>
          <g id="Group_1845" data-name="Group 1845" transform="translate(63.905 205.708)">
            <g id="Group_1844" data-name="Group 1844">
              <path id="Path_1546" data-name="Path 1546" d="M342.708,683.1c5.863-11.768,6.778-25.034,10.23-37.551.873-3.2,1.747-6.945,4.158-9.357,3.535-3.535,8.026-1.04,9.481,3.119,1.081,3.16,1.123,6.82,1.331,10.147.208,3.576.374,7.153.582,10.729.457,7.652,1.248,15.345,3.826,22.622.25.749,1.455.416,1.206-.333-2.7-7.651-3.452-15.76-3.867-23.828-.208-3.95-.374-7.943-.665-11.893-.249-3.16-.374-6.612-1.871-9.481a7.1,7.1,0,0,0-6.03-4.075c-2.7,0-4.949,1.871-6.321,4.034-1.788,2.869-2.62,6.487-3.451,9.731-.915,3.618-1.663,7.277-2.412,10.937-1.663,8.4-3.368,16.842-7.236,24.576-.416.707.665,1.331,1.04.624Z" transform="translate(-341.575 -633.2)" fill="#4c4c4c"/>
            </g>
          </g>
          <g id="Group_1847" data-name="Group 1847" transform="translate(69.302 200.796)">
            <g id="Group_1846" data-name="Group 1846">
              <path id="Path_1547" data-name="Path 1547" d="M355.986,624.636c-.832-1.206.873-2.828,1.871-1.5.956,1.248-.832,2.495-1.83,1.539-.582-.541-1.455.333-.873.873a2.629,2.629,0,0,0,3.285.208,2.314,2.314,0,0,0,.416-3.368,2.343,2.343,0,0,0-3.41-.457,2.614,2.614,0,0,0-.5,3.327c.416.665,1.5.042,1.04-.624Z" transform="translate(-354.552 -621.388)" fill="#4c4c4c"/>
            </g>
          </g>
          <g id="Group_1849" data-name="Group 1849" transform="translate(78.364 195.909)">
            <g id="Group_1848" data-name="Group 1848">
              <path id="Path_1548" data-name="Path 1548" d="M377.906,612.241c-.665-.956.79-1.83,1.414-.832.665,1.081-1.206,2.287-1.83,1.081-.374-.707-1.414-.083-1.081.624a2.147,2.147,0,0,0,3.036.79,2.327,2.327,0,0,0,.915-3.16,2.226,2.226,0,0,0-2.953-.832,2.143,2.143,0,0,0-.665,2.911c.541.707,1.622.083,1.164-.582Z" transform="translate(-376.344 -609.636)" fill="#4c4c4c"/>
            </g>
          </g>
          <g id="Group_1851" data-name="Group 1851" transform="translate(74.963 186.679)">
            <g id="Group_1850" data-name="Group 1850">
              <path id="Path_1549" data-name="Path 1549" d="M369.511,590.126c-.333-.956.707-1.955,1.539-1.164s-.125,1.913-1.081,1.58c-.749-.249-1.081.956-.333,1.206a2.221,2.221,0,0,0,2.287-3.659,2.151,2.151,0,0,0-2.786-.249,2.288,2.288,0,0,0-.832,2.62c.291.749,1.5.457,1.206-.333Z" transform="translate(-368.166 -587.44)" fill="#4c4c4c"/>
            </g>
          </g>
          <g id="Group_1853" data-name="Group 1853" transform="translate(91.064 199.561)">
            <g id="Group_1852" data-name="Group 1852">
              <path id="Path_1550" data-name="Path 1550" d="M408.014,619.325c-.125-.083.042.042.083.125v.125h.166a1.217,1.217,0,0,1,.374.083,7.136,7.136,0,0,0-.457-.582v1a7.088,7.088,0,0,1,.457-.582,1.652,1.652,0,0,1-1,.083c-.749-.249-1.081.956-.333,1.206a2.292,2.292,0,0,0,1.663-.083c.25-.125.457-.291.457-.582v-1a.586.586,0,0,0-.457-.582c-.665-.166-1.456-.25-1.871.416a1.021,1.021,0,0,0,.333,1.539.665.665,0,0,0,.873-.208.761.761,0,0,0-.291-.956Z" transform="translate(-406.885 -618.418)" fill="#4c4c4c"/>
            </g>
          </g>
          <g id="Group_1855" data-name="Group 1855" transform="translate(161.327 33.835)">
            <g id="Group_1854" data-name="Group 1854">
              <path id="Path_1551" data-name="Path 1551" d="M576.161,220.975c.208.083-.25,2.162-.042,2.661a2.05,2.05,0,0,0,1.622,1.081,3.488,3.488,0,0,0,2.453-.707c.748-.457,2.537-2.038,3.077-.291.125.374-.291,1.289-.166,1.788.374,1.663,1.954,1.58,3.077.707a8.4,8.4,0,0,0,1-1.123c.416-1,1.04-1.206,1.83-.624a1.941,1.941,0,0,0,.125.707c.416.624.624,1.04,1.455,1,.79-.042.79-1.289,0-1.248.042,0-.873-1.871-1.372-2.079a1.99,1.99,0,0,0-1.788.291,4.584,4.584,0,0,0-.956.832c-.624.624-.582,1.539-1.58.915-.956-.582-.166-1.5-.832-2.329-1.081-1.372-2.911-.624-4.075.125-.665.416-2.329,1.913-2.745-.291-.042-.291.208-.749.208-1.04a1.226,1.226,0,0,0-.707-1.331c-.665-.5-1.289.582-.582.956Z" transform="translate(-575.849 -219.889)" fill="#282828"/>
            </g>
          </g>
          <g id="Group_1857" data-name="Group 1857" transform="translate(118.138 131.579)">
            <g id="Group_1856" data-name="Group 1856">
              <path id="Path_1552" data-name="Path 1552" d="M471.994,455.545c.5,5.822,1,11.644,1.539,17.466a.625.625,0,0,0,1.247,0c0-.125.042-.291.042-.416.083-.79-1.164-.79-1.248,0,0,.125-.042.291-.042.416h1.247c-.5-5.822-1-11.644-1.539-17.466-.083-.79-1.331-.832-1.248,0Z" transform="translate(-471.99 -454.937)" fill="#353434"/>
            </g>
          </g>
          <g id="Group_1859" data-name="Group 1859" transform="translate(118.314 130.979)">
            <g id="Group_1858" data-name="Group 1858">
              <path id="Path_1553" data-name="Path 1553" d="M473.2,455.16c1.747-.374,4.782-.915,6.113.541,1.206,1.289.915,3.826,1.081,5.572.291,3.493.582,6.986.873,10.438.083.79,1.331.79,1.248,0-.416-4.99-.457-10.23-1.289-15.178-.624-3.867-5.448-3.16-8.358-2.578-.79.166-.457,1.372.333,1.206Z" transform="translate(-472.414 -453.494)" fill="#353434"/>
            </g>
          </g>
          <g id="Group_1861" data-name="Group 1861" transform="translate(129.74 108.582)">
            <g id="Group_1860" data-name="Group 1860">
              <path id="Path_1554" data-name="Path 1554" d="M499.894,400.246a306.437,306.437,0,0,1,1.372,40.046c-.042.79,1.206.79,1.248,0a306.686,306.686,0,0,0-1.372-40.046c-.083-.79-1.331-.832-1.248,0Z" transform="translate(-499.89 -399.637)" fill="#353434"/>
            </g>
          </g>
          <g id="Group_1863" data-name="Group 1863" transform="translate(130.789 107.942)">
            <g id="Group_1862" data-name="Group 1862">
              <path id="Path_1555" data-name="Path 1555" d="M502.865,399.346a28.3,28.3,0,0,1,5.364.832c2.121.749,1.788,4.574,2,6.529.374,3.784.624,7.568.873,11.353.457,7.859.624,15.719.79,23.578a.625.625,0,0,0,1.247,0c-.208-9.065-.416-18.172-1.04-27.238-.291-4.242-.5-8.525-1.164-12.725-.582-3.576-4.865-3.119-7.735-3.576-.79-.042-1.123,1.123-.333,1.248Z" transform="translate(-502.414 -398.097)" fill="#353434"/>
            </g>
          </g>
          <g id="Group_1865" data-name="Group 1865" transform="translate(141.802 100.78)">
            <g id="Group_1864" data-name="Group 1864">
              <path id="Path_1556" data-name="Path 1556" d="M528.9,381.468q2.121,23.7,4.283,47.365c.083.79,1.331.79,1.248,0q-2.121-23.7-4.283-47.365c-.042-.79-1.289-.79-1.248,0Z" transform="translate(-528.898 -380.875)" fill="#353434"/>
            </g>
          </g>
          <g id="Group_1867" data-name="Group 1867" transform="translate(141.809 100.334)">
            <g id="Group_1866" data-name="Group 1866">
              <path id="Path_1557" data-name="Path 1557" d="M529.7,381.464a21.215,21.215,0,0,1,6.071-.291c1.705.166,2.911.5,2.994,2.329.042.624.042,1.289.042,1.913.125,3.119.25,6.238.416,9.356.541,11.935,1.164,23.828,1.788,35.763.042.79,1.289.79,1.248,0-.665-12.891-1.331-25.741-1.913-38.632-.125-2.7-.249-5.364-.333-8.067-.042-1.206-.042-2.412-1.164-3.2a7.708,7.708,0,0,0-3.867-.79,21.318,21.318,0,0,0-5.614.416c-.79.166-.457,1.372.333,1.206Z" transform="translate(-528.914 -379.801)" fill="#353434"/>
            </g>
          </g>
          <g id="Group_1869" data-name="Group 1869" transform="translate(105.048 97.051)">
            <g id="Group_1868" data-name="Group 1868">
              <path id="Path_1558" data-name="Path 1558" d="M444.666,372.237c-1.372,2.7-2.7,5.406-4.075,8.109-.374.707.707,1.331,1.081.624,1.372-2.7,2.7-5.406,4.075-8.109.333-.707-.749-1.372-1.081-.624Z" transform="translate(-440.513 -371.908)" fill="#161616"/>
            </g>
          </g>
          <g id="Group_1871" data-name="Group 1871" transform="translate(109.343 97.853)">
            <g id="Group_1870" data-name="Group 1870">
              <path id="Path_1559" data-name="Path 1559" d="M450.866,374.61a11.273,11.273,0,0,0,3.784,6.113c.624.5,1.5-.374.873-.873a10.247,10.247,0,0,1-3.451-5.531.62.62,0,1,0-1.206.291Z" transform="translate(-450.842 -373.835)" fill="#161616"/>
            </g>
          </g>
          <g id="Group_1873" data-name="Group 1873" transform="translate(108.476 98.618)">
            <g id="Group_1872" data-name="Group 1872">
              <path id="Path_1560" data-name="Path 1560" d="M448.775,376.268a189.2,189.2,0,0,0,7.069,53.935.626.626,0,0,0,1.206-.333,188.158,188.158,0,0,1-7.028-53.6.625.625,0,0,0-1.247,0Z" transform="translate(-448.757 -375.675)" fill="#161616"/>
            </g>
          </g>
          <g id="Group_1875" data-name="Group 1875" transform="translate(116.468 151.514)">
            <g id="Group_1874" data-name="Group 1874">
              <path id="Path_1561" data-name="Path 1561" d="M468.568,505.589q14.6-1.372,29.276-1.455c9.107-.042,18.962-.416,27.363,3.7.707.333,1.331-.707.624-1.081-8.151-3.992-17.466-3.909-26.365-3.867q-15.469,0-30.9,1.455c-.79.083-.79,1.331,0,1.248Z" transform="translate(-467.975 -502.877)" fill="#161616"/>
            </g>
          </g>
          <g id="Group_1877" data-name="Group 1877" transform="translate(168.273 151.028)">
            <g id="Group_1876" data-name="Group 1876">
              <path id="Path_1562" data-name="Path 1562" d="M592.863,502.869a53.823,53.823,0,0,1,6.4,4.533l.125-1c-1.7,1.289-3.368,2.578-5.073,3.867-.624.5,0,1.58.624,1.081,1.7-1.289,3.368-2.578,5.073-3.867a.654.654,0,0,0,.125-1,52.04,52.04,0,0,0-6.653-4.7.624.624,0,0,0-.624,1.081Z" transform="translate(-592.552 -501.708)" fill="#161616"/>
            </g>
          </g>
          <g id="Group_1879" data-name="Group 1879" transform="translate(112.191 64.786)">
            <g id="Group_1878" data-name="Group 1878">
              <path id="Path_1563" data-name="Path 1563" d="M457.861,349.826l1.871,2.246a.657.657,0,0,0,1-.125c3.327-6.529,6.612-13.1,9.98-19.628.873-1.663,2.079-.291,3.327.166a3.446,3.446,0,0,0,2.412-.083c2-.749,3.327-2.828,4.242-4.657,1.5-3.119,2.828-6.362,4.283-9.523.374-.873.79-1.747,1.164-2.578a6.163,6.163,0,0,1,.873-1.913c1.289-1.164,4.45,1.5,5.531,2.162,1.788,1.081,4.366,3.493,6.7,2.869,1.747-.457,2.578-2.37,3.077-3.951a61.287,61.287,0,0,1,10.23-19.42.628.628,0,0,0-.624-1.04,19.734,19.734,0,0,0-5.905,3.16c-.582.457.166,1.289.749,1,1.622-.79,3.285-1.622,4.907-2.412-.291-.125-.624-.249-.915-.374.5,2.5,1,4.99,1.455,7.485.166.79,1.372.457,1.206-.333-.5-2.5-1-4.99-1.455-7.485a.633.633,0,0,0-.915-.374c-1.622.79-3.285,1.622-4.907,2.412l.749,1a17.115,17.115,0,0,1,5.364-2.869c-.208-.333-.416-.707-.624-1.04a58.479,58.479,0,0,0-8.774,14.8c-.582,1.414-1.081,2.869-1.539,4.325-.374,1.164-.956,3.659-2.5,3.909-1.747.291-3.992-1.7-5.406-2.578s-2.786-1.83-4.242-2.62c-1.663-.873-2.7-.541-3.535,1.081-1.58,3.119-2.869,6.446-4.325,9.648-1.081,2.412-2.453,7.277-5.406,8.067-2,.541-3.826-2.453-5.614-.707-1.04,1-1.58,2.869-2.2,4.117-.956,1.871-1.871,3.7-2.828,5.572-1.871,3.7-3.784,7.4-5.655,11.1l1-.125-1.871-2.246c-.541-.541-1.414.333-.873.956Z" transform="translate(-457.691 -294.318)" fill="#161616"/>
            </g>
          </g>
          <g id="Group_1881" data-name="Group 1881" transform="translate(287.75 0)">
            <g id="Group_1880" data-name="Group 1880">
              <path id="Path_1564" data-name="Path 1564" d="M885.493,155.481c-4.075-2.246-5.822-7.943-3.244-11.976,2.62-4.117,8.982-4.865,12.683-1.83,3.784,3.16,3.826,9.648.208,12.933-3.743,3.452-10.022,2.537-13.1-1.289-.5-.624-1.372.249-.873.873a10.72,10.72,0,0,0,12.184,2.994,9.822,9.822,0,0,0,5.655-10.4,9.209,9.209,0,0,0-8.234-8.192c-4.2-.5-8.691,1.58-10.271,5.656a10.067,10.067,0,0,0,4.408,12.226c.665.457,1.289-.624.582-1Z" transform="translate(-879.864 -138.525)" fill="#353434"/>
            </g>
          </g>
          <g id="Group_1883" data-name="Group 1883" transform="translate(309.763 18.568)">
            <g id="Group_1882" data-name="Group 1882" transform="translate(0)">
              <path id="Path_1565" data-name="Path 1565" d="M934.463,189.215c-1.747-3.244,2.745-6.82,4.99-3.327,2,3.077-2.911,5.406-4.491,2.537-.374-.707-1.455-.083-1.081.624a4.027,4.027,0,0,0,5.156,1.539,3.56,3.56,0,0,0,1.5-5.323,4.071,4.071,0,0,0-5.822-1.372,4.713,4.713,0,0,0-1.372,5.988c.457.665,1.538.042,1.123-.665Z" transform="translate(-932.8 -183.175)" fill="#353434"/>
            </g>
          </g>
          <g id="Group_1885" data-name="Group 1885" transform="translate(288.929 337.905)">
            <g id="Group_1884" data-name="Group 1884">
              <path id="Path_1566" data-name="Path 1566" d="M883.324,952.347h98.139a.625.625,0,0,0,0-1.248H883.324a.624.624,0,1,0,0,1.248Z" transform="translate(-882.7 -951.1)" fill="#161616"/>
            </g>
          </g>
          <g id="Group_1887" data-name="Group 1887" transform="translate(407.642 337.905)">
            <g id="Group_1886" data-name="Group 1886">
              <path id="Path_1567" data-name="Path 1567" d="M1168.767,952.347h18.713a.625.625,0,0,0,0-1.248h-18.713a.625.625,0,0,0,0,1.248Z" transform="translate(-1168.175 -951.1)" fill="#161616"/>
            </g>
          </g>
          <g id="Group_1889" data-name="Group 1889" transform="translate(194.688 356.785)">
            <g id="Group_1888" data-name="Group 1888">
              <path id="Path_1568" data-name="Path 1568" d="M656.667,997.747h65.288a.625.625,0,0,0,0-1.248H656.667a.625.625,0,0,0,0,1.248Z" transform="translate(-656.075 -996.5)" fill="#161616"/>
            </g>
          </g>
          <g id="Group_1891" data-name="Group 1891" transform="translate(259.144 351.795)">
            <g id="Group_1890" data-name="Group 1890">
              <path id="Path_1569" data-name="Path 1569" d="M811.667,985.748h56.555a.625.625,0,0,0,0-1.248H811.667a.625.625,0,0,0,0,1.248Z" transform="translate(-811.075 -984.5)" fill="#161616"/>
            </g>
          </g>
          <g id="Group_1893" data-name="Group 1893" transform="translate(106.841 347.761)">
            <g id="Group_1892" data-name="Group 1892">
              <path id="Path_1570" data-name="Path 1570" d="M445.729,976.671h17.05a.936.936,0,0,0,0-1.871h-17.05a.936.936,0,0,0,0,1.871Z" transform="translate(-444.825 -974.8)" fill="#161616"/>
            </g>
          </g>
          <g id="Group_1895" data-name="Group 1895" transform="translate(129.712 347.761)">
            <g id="Group_1894" data-name="Group 1894">
              <path id="Path_1571" data-name="Path 1571" d="M500.729,976.671h5.822a.936.936,0,0,0,0-1.871h-5.822a.936.936,0,0,0,0,1.871Z" transform="translate(-499.825 -974.8)" fill="#161616"/>
            </g>
          </g>
          <path id="Path_1572" data-name="Path 1572" d="M559.7,495.8" transform="translate(-405.089 -347.229)" fill="none" stroke="#161616" stroke-miterlimit="10" stroke-width="1"/>
        </g>
        <g id="cat" transform="translate(240.623 412.628)">
          <path id="Path_1573" data-name="Path 1573" d="M360.711,797.684c.79.125,1.871,1.123,2.7,5.863l7.36.5c2.038-1.7,4.075-3.41,6.113-5.156.291,1.663.665,4.117,1,7.111.749,6.945.291,8.608.749,12.475a39.322,39.322,0,0,0,5.614,15.885c3.41,5.364,5.655,5.531,8.317,10.77a29.511,29.511,0,0,1,2.953,10.521c.416-.042,5.7-.457,9.065,3.659,1.539,1.913,3.244,5.489,1.954,8.317-1.247,2.745-4.117,2.329-9.315,6.861-1.83,1.58-3.576,3.16-3.16,4.408.416,1.289,2.661,1.04,6.612,3.16,2.079,1.123,3.077,1.7,3.41,2.7,1.248,3.618-6.654,9.19-7.818,10.022-3.826,2.661-8.483,4.741-9.065,3.909-.873-1.248,8.525-8.109,7.111-10.77-1.04-2-6.945.5-8.317-1.7-1.5-2.412,3.784-8.442,6.612-11.727,5.448-6.321,8.9-7.9,8.317-10.022-.624-2.246-5.364-3.743-7.818-2.2-2.079,1.289-1.663,4.2-2.453,6.113-1.5,3.659-8.65,6.654-33.268,3.909a11.057,11.057,0,0,1,7.568-5.863,10.95,10.95,0,0,1,2.953-14.679c-1.663-3.285-3.327-6.861-4.907-10.77-1-2.537-1.913-4.99-2.7-7.36a10.694,10.694,0,0,1-7.111-2.2c-3.119-2.745-1.871-6.113-5.115-8.566-3.036-2.329-6.654-1.289-7.277-3.285a2.86,2.86,0,0,1,.915-2.661c1.58-1.5,4.408-.749,7.485.083a33.847,33.847,0,0,1,8.525,3.7,17.834,17.834,0,0,1-3.285-9.564C354.14,804.3,358.3,797.351,360.711,797.684Z" transform="translate(-329.89 -797.672)" fill="#161616" stroke="#b2b2b2" stroke-width="1"/>
          <path id="Path_1574" data-name="Path 1574" d="M382.112,869.28c-2.869,1.248-1.788,9.689-.749,17.382a137.9,137.9,0,0,0,3.909,18.838c-5.822,4.491-5.531,5.78-5.364,6.113.541,1.123,4.408.457,5.614.25a12.37,12.37,0,0,0,4.158-1.206c2.952-1.954,1.414-7.9.5-17.382-1.331-13.723.25-19.462-4.158-22.747C385.439,870.071,383.526,868.657,382.112,869.28Z" transform="translate(-352.747 -839.411)" fill="#161616" stroke="#b2b2b2" stroke-width="1"/>
          <g id="Group_1897" data-name="Group 1897" transform="translate(0 45.188)">
            <g id="Group_1896" data-name="Group 1896">
              <path id="Path_1575" data-name="Path 1575" d="M315.606,908.234a7.36,7.36,0,0,0,1.164-.624c-.083-.042-.083.624-.083.79a8.432,8.432,0,0,0-.125,1.788,1.387,1.387,0,0,0,1.622,1.164,2.151,2.151,0,0,0,1.164-.541,7.381,7.381,0,0,1,.707-.582,7.9,7.9,0,0,1,.125,1.04,1.55,1.55,0,0,0,1.622,1.372c.79-.083.79-1.331,0-1.248-.416.042-.541-2.2-1.248-2.453a1.064,1.064,0,0,0-.873.083c-.624.291-1.539,1.622-1.83.458-.208-.873.665-2.121-.125-2.869-.749-.707-2,.125-2.7.5a.632.632,0,0,0,.582,1.123Z" transform="translate(-314.684 -906.337)" fill="#fff" stroke="#b2b2b2" stroke-width="1"/>
            </g>
          </g>
          <g id="Group_1899" data-name="Group 1899" transform="translate(28.735 12.26)">
            <g id="Group_1898" data-name="Group 1898">
              <path id="Path_1576" data-name="Path 1576" d="M384.58,828.462a1.591,1.591,0,0,1,2.412.333c.333.5,1.123.042.79-.457a2.576,2.576,0,0,0-3.867-.541c-.416.416.25,1.081.665.665Z" transform="translate(-383.783 -827.153)" fill="#fff" stroke="#b2b2b2" stroke-width="1"/>
            </g>
          </g>
          <g id="Group_1901" data-name="Group 1901" transform="translate(37.634 11.743)">
            <g id="Group_1900" data-name="Group 1900">
              <path id="Path_1577" data-name="Path 1577" d="M405.98,827.445a2.052,2.052,0,0,1,2.786-.083c.457.416,1.123-.249.665-.665a2.977,2.977,0,0,0-4.117.083c-.416.416.25,1.081.665.665Z" transform="translate(-405.183 -825.911)" fill="#fff" stroke="#b2b2b2" stroke-width="1"/>
            </g>
          </g>
          <g id="Group_1903" data-name="Group 1903" transform="translate(29.893 17.554)">
            <g id="Group_1902" data-name="Group 1902">
              <path id="Path_1578" data-name="Path 1578" d="M387.83,840.474c-.457.915-2.412,4.075-.291,4.325.873.083,1.7-.707,2.2-1.289a9.459,9.459,0,0,0,1.5-2.869c.291-.749-.915-1.081-1.206-.333a7.1,7.1,0,0,1-1.954,3.077c-.208.166-.333.457-.25.083a2.118,2.118,0,0,1,.291-.707c.249-.541.5-1.081.79-1.622.333-.79-.749-1.414-1.081-.665Z" transform="translate(-386.57 -839.885)" fill="#ec615b" stroke="#b2b2b2" stroke-width="1"/>
            </g>
          </g>
          <g id="Group_1905" data-name="Group 1905" transform="translate(30.785 16.805)">
            <g id="Group_1904" data-name="Group 1904">
              <path id="Path_1579" data-name="Path 1579" d="M390.2,840.087a10.669,10.669,0,0,0,1.455-.915c-.166.042-.333.042-.5.083.042,0,.083.042.125.042-.125-.083-.25-.208-.374-.291,0-.25-.042-.25-.208.042a3.635,3.635,0,0,0-.333.416,8.415,8.415,0,0,0-.541.748c-.374.582-.707,1.164-1.04,1.788-.374.707.707,1.331,1.081.624.374-.665.749-1.372,1.164-2,.333-.5,1.04-1.04,1.081-1.663a.8.8,0,0,0-.749-.873.912.912,0,0,0-.707.291,5.435,5.435,0,0,1-1.164.707c-.624.208,0,1.289.707,1Z" transform="translate(-388.713 -838.084)" fill="#ec615b" stroke="#b2b2b2" stroke-width="1"/>
            </g>
          </g>
          <g id="Group_1907" data-name="Group 1907" transform="translate(30.561 15.191)">
            <g id="Group_1906" data-name="Group 1906">
              <path id="Path_1580" data-name="Path 1580" d="M388.643,837.113a2.9,2.9,0,0,0,2.911-2.329c.083-.582-.79-.832-.915-.25a1.94,1.94,0,0,1-2,1.663c-.624-.042-.624.873,0,.915Z" transform="translate(-388.175 -834.203)" fill="#fff" stroke="#b2b2b2" stroke-width="1"/>
            </g>
          </g>
          <g id="Group_1909" data-name="Group 1909" transform="translate(33.148 15.044)">
            <g id="Group_1908" data-name="Group 1908">
              <path id="Path_1581" data-name="Path 1581" d="M394.4,834.287a3.169,3.169,0,0,0,3.327,2.869c.582-.042.582-1,0-.956a2.218,2.218,0,0,1-2.412-1.913c-.042-.582-.956-.582-.915,0Z" transform="translate(-394.397 -833.85)" fill="#fff" stroke="#b2b2b2" stroke-width="1"/>
            </g>
          </g>
        </g>
        <g id="color_chart" transform="translate(481.196 349.722)">
          <path id="Path_1582" data-name="Path 1582" d="M944.152,646.4q-20.647,25.013-41.252,49.985l64.747,16.093a85.793,85.793,0,0,0-9.065-46.284A82.363,82.363,0,0,0,944.152,646.4Z" transform="translate(-898.866 -646.4)" fill="#0cf2b4" stroke="#fff" stroke-width="1"/>
          <path id="Path_1583" data-name="Path 1583" d="M893.2,774.7q32.685,8.234,65.412,16.426a47.826,47.826,0,0,1-11.436,27.862Q920.23,796.844,893.2,774.7Z" transform="translate(-893.2 -721.347)" fill="#966be8" stroke="#707070" stroke-width="1"/>
        </g>
        <g id="chart" transform="translate(405.304 328.431)">
          <path id="Path_1584" data-name="Path 1584" d="M72.482,0c40.031,0,72.482,33.27,72.482,74.312s-32.451,74.312-72.482,74.312S0,115.353,0,74.312,32.451,0,72.482,0Z" transform="translate(0.208 0)" fill="none" stroke="#fafafa" stroke-width="3"/>
          <g id="Group_1911" data-name="Group 1911" transform="translate(72.534 71.332)">
            <g id="Group_1910" data-name="Group 1910">
              <path id="Path_1585" data-name="Path 1585" d="M886.2,768.134a.481.481,0,0,1,.665.166c.042-.166.042-.333.083-.5-.042.083-.166.042-.208,0a.6.6,0,0,0-.749.416.629.629,0,0,0,.416.748,1.352,1.352,0,0,0,1.414-.333.945.945,0,0,0-.083-1.372,1.7,1.7,0,0,0-2.37-.083.634.634,0,1,0,.832.956Z" transform="translate(-885.126 -766.735)" fill="#161616"/>
            </g>
          </g>
          <g id="Group_1913" data-name="Group 1913" transform="translate(74.578 16.058)">
            <g id="Group_1912" data-name="Group 1912">
              <path id="Path_1586" data-name="Path 1586" d="M932.9,634.1a684.664,684.664,0,0,1-42.707,55.765c-.5.624.374,1.5.873.873a683.772,683.772,0,0,0,42.915-56.014c.458-.665-.624-1.289-1.081-.624Z" transform="translate(-890.042 -633.816)" fill="#161616"/>
            </g>
          </g>
          <g id="Group_1915" data-name="Group 1915" transform="translate(73.652 72.306)">
            <g id="Group_1914" data-name="Group 1914">
              <path id="Path_1587" data-name="Path 1587" d="M888.265,770.293q35.18,6.3,69.862,14.887a.626.626,0,0,0,.333-1.206q-34.681-8.546-69.862-14.887c-.79-.125-1.123,1.081-.333,1.206Z" transform="translate(-887.814 -769.078)" fill="#161616"/>
            </g>
          </g>
          <g id="Group_1917" data-name="Group 1917" transform="translate(73.811 72.27)">
            <g id="Group_1916" data-name="Group 1916">
              <path id="Path_1588" data-name="Path 1588" d="M888.406,770.034q26.635,24.389,54.891,46.949c.624.5,1.5-.374.873-.873q-28.194-22.518-54.892-46.949c-.582-.541-1.5.333-.873.873Z" transform="translate(-888.197 -768.991)" fill="#161616"/>
            </g>
          </g>
          <path id="Path_1589" data-name="Path 1589" d="M783.431,595.557c1.539,6.861,2.578,16.634-1.206,26.614-8.608,22.788-33.6,23.911-43.081,42.5C733.987,674.775,732.7,691.492,749,720.6v14.679a72.611,72.611,0,0,1-15.262-11.353c-19.42-19-22.414-43.83-23.038-53.27.042-6.82,1-28.984,17.341-48.779,3.7-4.491,16.842-19.877,39.214-24.826A66.984,66.984,0,0,1,783.431,595.557Z" transform="translate(-710.7 -595.39)" fill="#6d6c6c" opacity="0.21"/>
        </g>
        <g id="leg_r" transform="translate(342.753 301.734)">
          <path id="Path_1590" data-name="Path 1590" d="M581.515,865.193c2.869,7.236,5.739,14.43,8.566,21.665-1.7,3.743-4.325,9.273-7.943,15.885-4.741,8.65-6.986,11.561-6.238,12.434,1.081,1.248,8.109-1.871,35.388-22.289-1.7-4.741-3.452-9.523-5.157-14.388q-3.743-10.6-7.277-21Q590.248,861.367,581.515,865.193Z" transform="translate(-569.323 -721.727)" fill="#161616" stroke="#c4c4c4" stroke-width="1"/>
          <path id="Path_1591" data-name="Path 1591" d="M649.155,547.717c4.616,7.859,1.331,20.044.873,21.666-2.537,9.44-8.275,10.354-29.317,30.273-13.182,12.517-16.966,17.59-19.753,23.163a59.053,59.053,0,0,0-5.7,19.586c1.705,9.98,3.41,19.919,5.115,29.9a71.961,71.961,0,0,1-18.3,8.566,73.467,73.467,0,0,1-14.6,2.869,98.572,98.572,0,0,1-6.362-49.319c3.576-26.489,17.59-43.83,29.234-58.218A176.209,176.209,0,0,1,646.12,531a23.222,23.222,0,0,0,.832,12.351A23.6,23.6,0,0,0,649.155,547.717Z" transform="translate(-560.281 -531)" fill="#966be8"/>
          <path id="Path_1592" data-name="Path 1592" d="M666.218,544.1a148.889,148.889,0,0,1-17.091,33.143c-16.842,24.493-29.275,26.489-39.214,49.236a107.018,107.018,0,0,0-8.15,33.434,115.4,115.4,0,0,0,1.04,28.693,35.372,35.372,0,0,0,8.442-1.331,34.915,34.915,0,0,0,13.141-7.111c-.707-3.368-1.747-8.358-2.911-14.471-1.58-8.483-2.37-12.766-2.37-15.8,0-8.941,3.784-15.677,6.861-21.042,1.456-2.537,5.7-9.564,20.543-23.163,15.677-14.347,22.206-16.842,26.323-27.363a32.943,32.943,0,0,0,2.37-12.891C674.826,554.5,668.671,546.845,666.218,544.1Z" transform="translate(-584.247 -538.652)" fill="#6d6c6c" opacity="0.2"/>
          <path id="Path_1593" data-name="Path 1593" d="M683.5,603.6c-8.525,7.153-20.709,17.84-34.723,31.563-20.335,19.961-23.953,25.782-25.533,28.693-4.408,8.109-11.976,26.573-4.491,57.387,2.453-1,4.99-2.121,7.651-3.41,2.121-1.04,4.158-2.121,6.071-3.16q-2.495-14.6-4.99-29.234a44.894,44.894,0,0,1,3.16-15.262,50.952,50.952,0,0,1,6.57-11.311c3.41-4.658,6.7-7.818,13.141-13.931,5.156-4.907,10.147-10.063,15.511-14.721,9.648-8.359,13.972-10.646,16.3-17.091A23.99,23.99,0,0,0,683.5,603.6Z" transform="translate(-592.59 -573.41)" fill="#6d6c6c" opacity="0.27"/>
        </g>
        <g id="leg_l" transform="translate(374.781 307.115)">
          <path id="Path_1594" data-name="Path 1594" d="M699.7,855.224l18.963,14.6c-8.4,21.291-8.4,26.822-6.7,27.778,2.828,1.622,12.1-8.4,17.382-15.76a72.789,72.789,0,0,0,9.024-17.133c-2.578-3.285-5.531-6.7-8.816-10.188A162.817,162.817,0,0,0,716.375,842C710.845,846.45,705.272,850.816,699.7,855.224Z" transform="translate(-673.751 -718.054)" fill="#161616" stroke="#d3d3d3" stroke-width="1"/>
          <path id="Path_1595" data-name="Path 1595" d="M732.1,555.277c3.7,9.814,1.456,19.3.873,21.665-4.242,17.632-20,32.186-25.574,37.26-9.523,8.733-17.424,13.1-21.832,24.743a39.06,39.06,0,0,0-2.412,9.939q4.554,10.417,9.107,20.792a44.811,44.811,0,0,1-15.178,18.214,43.106,43.106,0,0,1-10.4,5.2c-6.321-6.446-23.454-25.574-22.539-51.149.707-19.628,11.81-35.43,20.376-47.7,8.608-12.267,10.812-10.77,21.666-26.448,9.4-13.6,11.186-19.794,19.087-22.539,7.943-2.786,19.586-1.248,24.7,5.655A19.318,19.318,0,0,1,732.1,555.277Z" transform="translate(-641.281 -543.942)" fill="#966be8"/>
          <path id="Path_1596" data-name="Path 1596" d="M637.3,615.8" transform="translate(-637.3 -585.918)" fill="#ec615b"/>
          <path id="Path_1597" data-name="Path 1597" d="M740.581,565.064a49.744,49.744,0,0,1-1.123,17.964c-6.654,25.741-31.022,27.986-42.749,55.848-2.287,5.448-7.61,18.63-3.41,33.891,3.244,11.893,10.812,19.628,15.1,23.371a21.354,21.354,0,0,0,6.82-5.7,21.77,21.77,0,0,0,4.283-9.689c-2.953-7.111-5.905-14.263-8.816-21.374a40.983,40.983,0,0,1,4.283-12.559c3.576-6.737,7.9-10.147,13.473-15.178,10.23-9.19,16.759-15.012,22.414-23.038,3.576-5.115,8.774-12.642,10.479-23.662a49.065,49.065,0,0,0-1.372-21.042C753.514,564.316,747.026,564.69,740.581,565.064Z" transform="translate(-669.097 -555.6)" fill="#966be8" opacity="0.24"/>
          <path id="Path_1598" data-name="Path 1598" d="M778.5,598.8a144.1,144.1,0,0,1-17.674,25.491c-16.8,19.337-28.194,23.37-36.012,38.258-3.368,6.4-6.446,16.966-2.661,33.933,4.782,1.913,9.606,3.826,14.388,5.78-3.036-7.153-6.03-14.263-9.065-21.416a35.529,35.529,0,0,1,4.117-14.18c2.62-4.824,5.531-7.36,11.935-13.182,10.6-9.648,15.927-14.471,18.089-16.883,4.949-5.448,10.355-11.56,13.765-21A50.874,50.874,0,0,0,778.5,598.8Z" transform="translate(-685.851 -575.987)" fill="#6d6c6c" opacity="0.25"/>
        </g>
        <g id="hand_r" transform="translate(342.965 234.907)">
          <path id="Path_1599" data-name="Path 1599" d="M590.627,409.979a28.376,28.376,0,0,0-6.654-9.4c-4.491-4.117-10.77-7.069-11.768-5.863-.416.5-.374,2.246,7.194,10.6" transform="translate(-567.377 -384.404)" fill="#fff" stroke="#161616" stroke-miterlimit="10" stroke-width="2"/>
          <path id="Path_1600" data-name="Path 1600" d="M569.158,415.4a14.961,14.961,0,0,0-6.03,6.778,8.259,8.259,0,0,0-.79,5.364c.956,3.659,5.364,5.2,5.739,5.364,1.788.624,2.246.166,3.535.915,2.079,1.206,2,2.828,3.535,4.325,3.16,3.036,9.564,1.83,9.856.541.166-.707-1.663-1.372-1.5-2.661.083-.79.873-1.123,1.414-1.622,2.911-2.661.125-10.438-.374-11.727a25.855,25.855,0,0,0-2.412-4.907" transform="translate(-561.586 -396.645)" fill="#fff" stroke="#161616" stroke-miterlimit="10" stroke-width="2"/>
          <g id="Group_1919" data-name="Group 1919" transform="translate(0 29.591)">
            <g id="Group_1918" data-name="Group 1918">
              <path id="Path_1601" data-name="Path 1601" d="M560.837,442.223a9.717,9.717,0,0,0,5.323,5.7c2.578,1.04,4.491-.333,4.533-3.077a.625.625,0,0,0-1.248,0c-.042,3.2-3.2,2.038-4.782.749a8.4,8.4,0,0,1-2.62-3.7c-.291-.749-1.5-.457-1.206.333Z" transform="translate(-560.792 -441.457)" fill="#161616"/>
            </g>
          </g>
          <g id="Group_1921" data-name="Group 1921" transform="translate(3.086 26.012)">
            <g id="Group_1920" data-name="Group 1920">
              <path id="Path_1602" data-name="Path 1602" d="M568.291,433.787c1.247,2.329,2.911,4.907,5.489,5.863,2.329.873,3.7-.541,3.95-2.745.083-.79-1.164-.79-1.247,0-.374,3.285-3.576,1-4.7-.166a15.01,15.01,0,0,1-2.412-3.576c-.374-.707-1.456-.083-1.081.624Z" transform="translate(-568.213 -432.852)" fill="#161616"/>
            </g>
          </g>
          <g id="Group_1923" data-name="Group 1923" transform="translate(6.844 20.372)">
            <g id="Group_1922" data-name="Group 1922">
              <path id="Path_1603" data-name="Path 1603" d="M577.312,420.249a30.025,30.025,0,0,0,2.537,4.865c.707,1.04,1.705,2.537,3.077,2.786,3.244.624,2.2-3.992,1.58-5.572-.291-.748-1.5-.416-1.206.333.291.707.915,2.162.665,2.952-.707,2.287-2.62-.541-3.036-1.123a30.018,30.018,0,0,1-2.537-4.865c-.333-.749-1.414-.125-1.081.624Z" transform="translate(-577.249 -419.287)" fill="#161616"/>
            </g>
          </g>
          <g id="Group_1925" data-name="Group 1925" transform="translate(6.595 18.013)">
            <g id="Group_1924" data-name="Group 1924">
              <path id="Path_1604" data-name="Path 1604" d="M577.587,415.065c1.248-.624,2.786.5,3.659,1.331a8.772,8.772,0,0,1,1.913,2.994c.291.748,1.5.416,1.206-.333-1.04-2.578-4.117-6.7-7.4-5.073-.707.333-.083,1.414.624,1.081Z" transform="translate(-576.652 -413.616)" fill="#161616"/>
            </g>
          </g>
          <path id="Path_1605" data-name="Path 1605" d="M678.048,376.995c1.331,3.951-.707,7.319-6.4,17.465-9.564,16.883-10.147,18.38-12.351,21.042-5.2,6.238-8.151,9.772-13.6,12.06-9.939,4.159-20.959.5-26.988-1.788a49.735,49.735,0,0,1-12.475-7.028c-1.83-1.5-3.244-2.661-4.158-3.368-1.913-1.539-2.786-2.2-3.535-3.535a7.851,7.851,0,0,1-.915-2.786c-.624-4.45,3.784-8.192,4.117-8.483-5.281,1.248-7.111,1-7.444.25-.79-1.663,4.949-7.776,8.982-6.4,1.913.624,2.869,2.786,3.576,4.366a13.382,13.382,0,0,1,1.04,7.194,38.262,38.262,0,0,0,10.77,5.156,39.346,39.346,0,0,0,20.792.25c2.121-3.41,5.572-8.982,9.772-15.927,11.477-19.046,14.513-25.075,19.794-25.159C672.974,370.258,676.883,373.543,678.048,376.995Z" transform="translate(-580.321 -370.299)" fill="#fff" stroke="#161616" stroke-miterlimit="10" stroke-width="2"/>
          <g id="Group_1927" data-name="Group 1927" transform="translate(16.508 31.351)">
            <g id="Group_1926" data-name="Group 1926">
              <path id="Path_1606" data-name="Path 1606" d="M605.026,445.694c-3.576-.166-4.075,4.45-4.533,7.069.416.042.832.125,1.206.166a9.569,9.569,0,0,1,1.58-4.45.624.624,0,0,0-1.081-.624c-1.622,2.62-2.62,5.863-.374,8.442l.873-.873a2.864,2.864,0,0,1-1-2.121c-.416.042-.832.125-1.206.166a10.907,10.907,0,0,0,.79,1.913c.374.707,1.456.083,1.081-.624a5.558,5.558,0,0,1-.665-1.622c-.166-.665-1.289-.541-1.206.166a4.568,4.568,0,0,0,1.372,2.994c.582.582,1.414-.291.873-.873-1.83-2.121-.665-4.824.582-6.945-.374-.208-.707-.416-1.081-.624a10.6,10.6,0,0,0-1.747,5.073c-.042.707,1.123.873,1.206.166.333-1.913.624-6.238,3.327-6.155.79.042.79-1.206,0-1.247Z" transform="translate(-600.489 -445.689)" fill="#fff"/>
            </g>
          </g>
          <path id="Path_1607" data-name="Path 1607" d="M652.72,374.4a178.948,178.948,0,0,1-13.556,28.4c-6.82,11.6-10.4,17.424-16.551,20.5-12.642,6.279-32.145,2.038-38.715-9.98a21.081,21.081,0,0,1-2.454-10.147,9.456,9.456,0,0,1-6.4.208c-5.323-2.121-5.822-10.063-8.65-9.98-1.871.083-3.244,3.618-3.743,4.907a8.65,8.65,0,0,0-.749,5.073c.665,2.952,3.784,5.281,7.693,6.03a13.427,13.427,0,0,1,4.117,2.994c1.372,1.5,1.747,2.661,3.2,3.368a5.861,5.861,0,0,0,3.576.374,85.564,85.564,0,0,0,9.024,6.4c8.566,5.24,18.921,11.56,30.648,9.4A29.868,29.868,0,0,0,631.8,426.88c3.784-2.537,7.859-6.362,15.594-20.293a228.653,228.653,0,0,0,11.1-22.955,6.857,6.857,0,0,0-.208-5.448A7,7,0,0,0,652.72,374.4Z" transform="translate(-561.355 -372.695)" fill="#6d6c6c" opacity="0.21"/>
          <path id="Path_1608" data-name="Path 1608" d="M584.989,443.675c-.582.416-.333,1.248-1.04,1.871a2.391,2.391,0,0,1-1.58.416,3.458,3.458,0,0,1-.541,2c-.582.832-1.372,1-1.331,1.331.083.374,1.247.166,2.37.79a4.309,4.309,0,0,1,1.58,1.7c2.745-2.62,5.489-5.2,8.234-7.818a7.664,7.664,0,0,1-4.657.416C586.694,443.966,585.7,443.176,584.989,443.675Z" transform="translate(-572.302 -413.069)" fill="#6d6c6c" opacity="0.22"/>
        </g>
        <g id="torso" transform="translate(417.488 222.099)">
          <path id="Path_1609" data-name="Path 1609" d="M762.871,350.853c-2.786,2.786-4.242,5.947-7.069,12.267a77.2,77.2,0,0,0-7.069,24.244c-1.331,12.309,1.788,15.1-.707,24.244A39.209,39.209,0,0,1,740,426.661a49.569,49.569,0,0,0,18.588,11.768,51.045,51.045,0,0,0,33.434-.249c3.7-9.98,7.36-19.961,11.061-29.9.042-8.442.374-15.636.707-21.208.832-13.307,2.2-23.5,3.077-29.691,1-7.277,2.038-13.39,2.828-17.881a183.351,183.351,0,0,0-22.622,2.578C768.943,345.4,764.66,349.064,762.871,350.853Z" transform="translate(-740 -339.5)" fill="#fff" stroke="#161616" stroke-miterlimit="10" stroke-width="2"/>
          <path id="Path_1610" data-name="Path 1610" d="M806.7,342.72a63.355,63.355,0,0,1,4.824,20.668c1.289,21.458-9.065,38.258-16.925,50.983a140.194,140.194,0,0,1-17.3,22.5,43.649,43.649,0,0,0,13.39,4.45,44.7,44.7,0,0,0,22.872-2.412c3.493-10.063,6.945-20.085,10.438-30.149.208-6.861.582-13.972,1.123-21.208,1.247-16.883,3.285-32.727,5.78-47.448Z" transform="translate(-761.789 -339.85)" fill="#6d6c6c" opacity="0.19"/>
          <path id="Path_1611" data-name="Path 1611" d="M821.5,341.723a78.678,78.678,0,0,1,5.406,32.561c-2,37.717-31.854,60.547-37.01,64.373a46.493,46.493,0,0,0,12.642,2.62,45.99,45.99,0,0,0,17.881-2.412c3.826-10.063,7.693-20.085,11.519-30.149,0-9.19.333-19,1.123-29.4A371.317,371.317,0,0,1,838.1,340.6Z" transform="translate(-769.149 -340.143)" fill="#6d6c6c" opacity="0.11"/>
        </g>
        <g id="hand_l" transform="translate(480.377 221.559)">
          <path id="Path_1612" data-name="Path 1612" d="M896.5,338.2a25.513,25.513,0,0,1,11.893,8.525c3.992,5.448,4.865,12.018,2.578,32.852-2.121,19.378-3.95,23.537-4.657,35.181a132.5,132.5,0,0,0,1.539,29.982l14.222-3.368a21.539,21.539,0,0,1,9.814,5.448c1.539,1.5,4.782,4.657,3.867,7.236-.582,1.663-2.7,2.5-3.618,2.828a10.143,10.143,0,0,1-4.907.5c-3.451-.208-6.9-.333-10.354-.5a73.551,73.551,0,0,0-7.485,0c4.2,3.618,5.988,5.947,5.448,6.986-.748,1.372-5.739.416-15.012-2.828-.416-3.368-1.081-8.483-2.079-14.721-2.578-16.3-4.45-22.123-5.7-30.773-1.289-8.941-.873-17.008,0-33.1C892.716,371.052,893.922,356,896.5,338.2Z" transform="translate(-891.232 -338.2)" fill="#fff" stroke="#161616" stroke-miterlimit="10" stroke-width="2"/>
          <g id="Group_1929" data-name="Group 1929" transform="translate(23.828 111.231)">
            <g id="Group_1928" data-name="Group 1928">
              <path id="Path_1613" data-name="Path 1613" d="M949.268,607.6c3.2-1.331,6.529-.582,9.606.79a23.244,23.244,0,0,1,7.236,4.491c.582.541,1.455-.333.873-.873a25.232,25.232,0,0,0-8.359-5.032c-3.119-1.289-6.487-1.871-9.731-.541-.665.249-.333,1.455.374,1.164Z" transform="translate(-948.533 -605.682)" fill="#161616"/>
            </g>
          </g>
          <g id="Group_1931" data-name="Group 1931" transform="translate(27.854 107.92)">
            <g id="Group_1930" data-name="Group 1930">
              <path id="Path_1614" data-name="Path 1614" d="M959,599.126c5.531-1.081,12.1,2.2,15.137,6.9.457.665,1.539.042,1.081-.624-3.41-5.2-10.4-8.65-16.551-7.444-.79.125-.457,1.331.333,1.164Z" transform="translate(-958.214 -597.721)" fill="#161616"/>
            </g>
          </g>
          <g id="Group_1933" data-name="Group 1933" transform="translate(32.828 105.208)">
            <g id="Group_1932" data-name="Group 1932">
              <path id="Path_1615" data-name="Path 1615" d="M970.768,592.446a13.761,13.761,0,0,1,6.03,2.079c.707.374,1.331-.707.624-1.081a15.446,15.446,0,0,0-6.653-2.246c-.79-.042-.79,1.206,0,1.247Z" transform="translate(-970.175 -591.198)" fill="#161616"/>
            </g>
          </g>
          <path id="Path_1616" data-name="Path 1616" d="M905.3,340.6a87.108,87.108,0,0,1,6.529,22.165c3.618,24.036-5.281,36.553-3.7,62.543a109.411,109.411,0,0,0,5.406,27.737,34.363,34.363,0,0,1,14.347-1.5c4.2.5,6.279.749,8.359,2.246s3.285,3.493,5.406,3.368a2.91,2.91,0,0,0,2.412-1.289c1.123-2.038-1.954-5.531-2.994-6.7a21.429,21.429,0,0,0-10.23-6.321l-14.721,2.994a97.456,97.456,0,0,1-2.412-20.085c-.125-7.485,1.206-16.551,3.909-34.432.5-3.327,1.123-10.022,2.412-23.454.416-4.408.749-8.358-.749-13.224-.749-2.453-2.578-8.026-7.984-11.519A16.6,16.6,0,0,0,905.3,340.6Z" transform="translate(-899.45 -339.602)" fill="#6d6c6c" opacity="0.16"/>
          <path id="Path_1617" data-name="Path 1617" d="M927.2,623a12.779,12.779,0,0,0,4.075,5.406c1.455,1.081,3.992,2.412,4.45,1.871.582-.665-1.622-4.325-5.032-6.155A10.17,10.17,0,0,0,927.2,623Z" transform="translate(-912.243 -504.567)" fill="#6d6c6c" opacity="0.22"/>
          <path id="Path_1618" data-name="Path 1618" d="M928.173,422.9a118.277,118.277,0,0,0-7.069,47.656,116.911,116.911,0,0,0,4.824,26.78,93.266,93.266,0,0,1-2.994-19.711c-.5-12.434,1.746-19.42,4.075-42.25C927.591,430.094,927.965,425.728,928.173,422.9Z" transform="translate(-908.558 -387.678)" fill="#6d6c6c" opacity="0.4"/>
          <path id="Path_1619" data-name="Path 1619" d="M958.6,596.354c-.083-.5,4.075-2.412,8.192-1.5,5.531,1.248,8.109,7.069,8.566,8.192a18.915,18.915,0,0,0-9.689-6.154C961.8,596.021,958.64,596.77,958.6,596.354Z" transform="translate(-930.584 -487.985)" fill="#6d6c6c" opacity="0.22"/>
        </g>
        <g id="Layer_11" transform="translate(397.884 158.121)">
          <path id="Path_1620" data-name="Path 1620" d="M753.306,314.563c-1.747,1.622-2.121,5.032-2.828,11.727-.79,7.693-1.123,11.6.5,13.557,2.953,3.576,9.315,3.784,13.723,1.83,5.2-2.329,6.986-7.36,7.444-8.608,2.038-5.78,1.372-14.513-4.782-18.505C763.2,311.818,756.758,311.361,753.306,314.563Z" transform="translate(-726.134 -259.65)" fill="#212121"/>
          <path id="Path_1621" data-name="Path 1621" d="M779.653,313.253c.624,2.994,3.951,3.244,6.778,8.026a19.124,19.124,0,0,1,2.5,9.523,27.68,27.68,0,0,0,20.46-9.648c-1.04-1.7-2.578-4.2-4.408-7.194-7.9-12.683-9.065-13.681-10.646-14.1C787.928,298.325,778.447,307.681,779.653,313.253Z" transform="translate(-743.499 -252.269)" fill="#fff" stroke="#3b3b3b" stroke-miterlimit="10" stroke-width="2"/>
          <path id="Path_1622" data-name="Path 1622" d="M750.813,348.454a8.2,8.2,0,1,0,16.26-1.954,15.922,15.922,0,0,1,2.828,4.7,15.15,15.15,0,0,1,1,4.366c-.624,1.04-3.867,6.2-9.939,7.194-1.04.166-6.945,1.04-9.731-2.5a9.551,9.551,0,0,1-1.539-5.572A15.562,15.562,0,0,1,750.813,348.454Z" transform="translate(-726.053 -279.611)" fill="#161616" opacity="0.74"/>
          <path id="Path_1623" data-name="Path 1623" d="M708.53,236.257c-1.913,3.535-1.455,7.111-.541,14.1,1.081,7.9,2.5,14.513,4.2,18.879a1.512,1.512,0,0,0,1.622.956,17.841,17.841,0,0,0,3.077-1.04,24.345,24.345,0,0,0,5.24,6.446,24.777,24.777,0,0,0,13.224,5.739,25.289,25.289,0,0,0,12.559-10.105A23.846,23.846,0,0,0,751.238,262a22.424,22.424,0,0,0-2.246-12.559,8.8,8.8,0,0,0,3.119-3.119c1.913-3.368,1.83-8.941-1.206-10.438-2.287-1.123-5.9.125-8.358,3.327a23.955,23.955,0,0,0-3.826-5.032,25.8,25.8,0,0,0-7.652-5.406C723.584,225.82,712.439,229.063,708.53,236.257Z" transform="translate(-701.236 -210.204)" fill="#fff" stroke="#3b3b3b" stroke-miterlimit="10" stroke-width="2"/>
          <g id="Group_1935" data-name="Group 1935" transform="translate(41.492 55.643)">
            <g id="Group_1934" data-name="Group 1934">
              <path id="Path_1624" data-name="Path 1624" d="M800.231,319.765a69.526,69.526,0,0,1-6.529,11.644l1-.125c-.25-.291-.5-.624-.707-.915a4.592,4.592,0,0,0-.083.749A12.76,12.76,0,0,0,796.572,328c-.374-.208-.707-.416-1.081-.624a4.735,4.735,0,0,1-2.537,2.537l.748,1a47.291,47.291,0,0,0,5.863-6.7c.457-.665-.624-1.289-1.081-.624a43.919,43.919,0,0,1-5.655,6.446c-.541.5.166,1.248.749,1a5.844,5.844,0,0,0,2.994-2.994.624.624,0,0,0-1.081-.624,14.692,14.692,0,0,1-2.454,2.869.573.573,0,0,0-.083.749,4.915,4.915,0,0,0,.915,1.164.657.657,0,0,0,1-.125A67.93,67.93,0,0,0,801.4,320.43c.249-.748-.832-1.372-1.164-.665Z" transform="translate(-792.636 -319.455)" fill="#161616"/>
            </g>
          </g>
          <g id="Group_1937" data-name="Group 1937" transform="translate(17.197 55.71)">
            <g id="Group_1936" data-name="Group 1936">
              <path id="Path_1625" data-name="Path 1625" d="M735,326.055c2.869-.749,4.533-3.16,5.988-5.531.416-.665-.665-1.289-1.081-.624-1.289,2.079-2.745,4.283-5.24,4.99-.79.166-.457,1.372.333,1.164Z" transform="translate(-734.214 -319.616)" fill="#161616"/>
            </g>
          </g>
          <g id="Group_1939" data-name="Group 1939" transform="translate(21.35 54.496)">
            <g id="Group_1938" data-name="Group 1938">
              <path id="Path_1626" data-name="Path 1626" d="M744.824,317.946a2.758,2.758,0,0,1,2.038,1c.541.624,1.414-.291.873-.873a3.957,3.957,0,0,0-2.911-1.372c-.832-.042-.832,1.206,0,1.248Z" transform="translate(-744.2 -316.698)" fill="#161616"/>
            </g>
          </g>
          <g id="Group_1941" data-name="Group 1941" transform="translate(19.146 47.511)">
            <g id="Group_1940" data-name="Group 1940">
              <path id="Path_1627" data-name="Path 1627" d="M740.148,300.648v-.125a.624.624,0,1,0-1.248,0v.125a.64.64,0,0,0,.624.624.671.671,0,0,0,.624-.624Z" transform="translate(-738.9 -299.9)" fill="#161616"/>
            </g>
          </g>
          <g id="Group_1943" data-name="Group 1943" transform="translate(22.587 43.685)">
            <g id="Group_1942" data-name="Group 1942">
              <path id="Path_1628" data-name="Path 1628" d="M747.768,291.948a.625.625,0,0,0,0-1.247.625.625,0,0,0,0,1.247Z" transform="translate(-747.175 -290.7)" fill="#161616"/>
            </g>
          </g>
          <g id="Group_1945" data-name="Group 1945" transform="translate(22.213 46.846)">
            <g id="Group_1944" data-name="Group 1944">
              <path id="Path_1629" data-name="Path 1629" d="M746.868,299.547a.625.625,0,0,0,0-1.247.625.625,0,0,0,0,1.247Z" transform="translate(-746.275 -298.3)" fill="#161616"/>
            </g>
          </g>
          <path id="Path_1630" data-name="Path 1630" d="M699.862,223.844a10.659,10.659,0,0,1-5.78-4.45c-2.537-4.325-.5-9.357.5-11.727.541-1.331,2.038-4.616,9.273-11.061,5.489-4.949,8.275-7.4,11.394-8.774,11.145-4.865,22.539-.208,24.618.665,3.077,1.248,5.323,2.786,9.772,5.78,5.406,3.659,8.857,6.03,11.56,10.105,3.285,4.99,1.289,6.279,4.117,11.893,4.491,8.9,10.687,7.818,14.388,16.052.624,1.372,4.075,9.024.166,15.719-3.2,5.448-9.731,7.4-14.555,7.277-8.774-.25-14.347-7.652-17.507-11.893a38.452,38.452,0,0,1-7.319-18.8c4.034-2.412,5.406-6.737,3.992-9.481-1.04-1.954-3.909-3.909-6.446-2.828a5.177,5.177,0,0,0-2.828,4.949,18.56,18.56,0,0,1-19-8.608,30.58,30.58,0,0,0-9.772,6.113A29.684,29.684,0,0,0,699.862,223.844Z" transform="translate(-692.858 -185.648)" fill="#212121" stroke="#707070" stroke-width="1"/>
          <path id="Path_1631" data-name="Path 1631" d="M759.946,259.116a33.188,33.188,0,0,1,7.568,10.729,32.2,32.2,0,0,1,2.454,15.885c1.5-2.537,2.952-5.073,4.449-7.651,2.412,5.406,4.782,10.812,7.194,16.176a14.2,14.2,0,0,0,6.279-3.2,13.492,13.492,0,0,0,3.368-4.574A41.965,41.965,0,0,1,776.912,268.6a40.064,40.064,0,0,1-2.828-10.937c3.576-2.537,4.907-6.612,3.576-9.523-.832-1.871-3.244-4.242-5.947-3.493a5.179,5.179,0,0,0-3.493,5.822A19.821,19.821,0,0,1,749.3,241.9c1.123,7.36,3.951,11.353,6.321,13.64C757.118,257.078,757.742,257.078,759.946,259.116Z" transform="translate(-725.829 -218.508)" fill="#6d6c6c" opacity="0.24"/>
          <path id="Path_1632" data-name="Path 1632" d="M803.526,288.1c-.291,0-.125,4.283-.541,8.234a37.682,37.682,0,0,1-3.285,11.81,14.9,14.9,0,0,0,6.82-11.6,17.693,17.693,0,0,1-1.331-2.453C803.734,290.761,803.775,288.1,803.526,288.1Z" transform="translate(-755.27 -245.496)" fill="#6d6c6c" opacity="0.24"/>
          <path id="Path_1633" data-name="Path 1633" d="M812.4,315.9a48.126,48.126,0,0,0,4.242,3.909c5.531,4.616,10.9,7.236,11.061,6.945s-5.073-2.412-9.065-8.151c-2.5-3.576-3.951-7.818-4.574-7.61-.291.083-.042,1.081-.541,2.7A9.715,9.715,0,0,1,812.4,315.9Z" transform="translate(-762.689 -258.863)" fill="#6d6c6c" opacity="0.19"/>
          <path id="Path_1634" data-name="Path 1634" d="M823.5,202.7a205.25,205.25,0,0,1,10.77,21.374c6.612,15.428,6.071,19.669,5.156,22.414-2.038,6.2-7.693,9.689-11.062,11.353a17.676,17.676,0,0,0,10.6,7.069c1.206.249,8.483,1.622,14.014-3.41a15.493,15.493,0,0,0,4.865-9.9c.749-6.986-3.41-12.226-4.741-13.723-1.747-1.954-2.121-1.5-6.2-5.448-3.16-3.036-4.7-4.574-5.614-6.487-1.455-3.119-.5-4.45-2.2-8.4a23.706,23.706,0,0,0-2.786-4.741C832.274,207.357,826.453,204.155,823.5,202.7Z" transform="translate(-769.173 -195.609)" fill="#161616" opacity="0.74"/>
          <path id="Path_1635" data-name="Path 1635" d="M730.447,287.1c.416.832.416,2.038-.125,2.287-.541.291-1.58-.5-1.954-1.414-.291-.79-.208-1.913.333-2.121C729.283,285.642,730.114,286.391,730.447,287.1Z" transform="translate(-713.505 -244.161)" fill="#161616"/>
          <g id="Group_1947" data-name="Group 1947" transform="translate(12.951 39.937)">
            <g id="Group_1946" data-name="Group 1946">
              <path id="Path_1636" data-name="Path 1636" d="M724.584,283.73a27.285,27.285,0,0,1,4.491-1.123c.582-.083.333-1-.249-.915a27.289,27.289,0,0,0-4.491,1.123.474.474,0,0,0,.249.915Z" transform="translate(-724.003 -281.687)" fill="#161616"/>
            </g>
          </g>
        </g>
      </g>
    </g>
  </g>
</svg>
